<svg width="40" height="14" viewBox="0 0 40 14" fill="none" xmlns="http://www.w3.org/2000/svg">
<path d="M0 6.67597V13.3517L1.4356 13.3452L2.86795 13.3355L2.88416 10.5161L2.90036 7.69676L3.00406 7.48288C3.14017 7.21067 3.4221 6.93522 3.71052 6.80235C3.96652 6.68245 4.3554 6.64356 4.63733 6.70837C5.15907 6.83152 5.57712 7.20743 5.77479 7.73241L5.84933 7.92361L5.85905 10.5971C5.86553 12.4443 5.87849 13.2804 5.90442 13.3095C5.93034 13.3419 6.222 13.3517 7.29465 13.3517C8.49692 13.3517 8.65247 13.3452 8.70108 13.2998C8.74645 13.2512 8.75293 12.9498 8.73997 9.93604C8.73024 6.90929 8.72376 6.60791 8.67191 6.38431C8.38998 5.19176 7.4664 4.27791 6.28681 4.02838C5.90442 3.9506 4.83825 3.94736 4.55308 4.02514C3.76561 4.24226 3.13044 4.74456 2.92952 5.30842C2.89388 5.40888 2.8874 4.9876 2.88416 2.71268V0.00028038H1.44208H0V6.67597Z" fill="white"/>
<path d="M22.0753 6.66597L22.0851 13.3352L23.5206 13.3449L24.953 13.3514V12.8815C24.953 12.6222 24.9595 12.4116 24.966 12.4116C24.9724 12.4116 25.0761 12.5121 25.1961 12.6384C25.8053 13.2671 26.5733 13.5782 27.5099 13.5782C28.6959 13.5782 29.7783 13.131 30.6111 12.3014C31.2366 11.6727 31.619 10.9566 31.8134 10.0459C31.9009 9.64086 31.8977 7.92981 31.8134 7.50205C31.4634 5.76507 30.1477 4.42021 28.4529 4.06698C27.4256 3.8531 26.5377 4.00217 25.734 4.53039C25.6335 4.59521 25.4164 4.78316 25.2544 4.94843L24.953 5.24981V2.62491V0H23.5109H22.0688L22.0753 6.66597ZM27.4775 6.82152C27.9311 6.92846 28.4529 7.31085 28.6959 7.71593C29.545 9.1094 28.4756 10.8885 26.8553 10.7783C25.802 10.707 24.9854 9.85474 24.9757 8.8145C24.9724 8.43859 25.0178 8.23119 25.1863 7.87796C25.4261 7.37566 25.922 6.97058 26.4761 6.82476C26.7127 6.76318 27.2182 6.76318 27.4775 6.82152Z" fill="white"/>
<path d="M14.2912 3.98619C12.8135 4.11906 11.4881 5.02968 10.8108 6.37129C10.6358 6.71804 10.4835 7.17173 10.4154 7.54764C10.3571 7.88143 10.3312 9.0837 10.3701 9.60544C10.4543 10.623 10.8918 11.5757 11.6177 12.2984C12.2367 12.9141 13.0079 13.3322 13.8375 13.4974C14.2426 13.5784 14.9685 13.5979 15.3379 13.5331C15.9958 13.4197 16.5499 13.1312 17.0231 12.6549L17.2078 12.4669V12.9076V13.3516H18.6498H20.0919V8.81473V4.27785H18.6498H17.2078V4.72182V5.16578L16.942 4.90329C16.3814 4.35887 15.7657 4.06721 14.9879 3.98619C14.6704 3.95055 14.6866 3.95055 14.2912 3.98619ZM15.743 6.82174C16.0898 6.90276 16.3847 7.07451 16.6763 7.36941C17.0133 7.70643 17.1592 7.99161 17.2337 8.45826C17.2791 8.74667 17.2791 8.80176 17.2337 9.09342C16.968 10.704 15.0074 11.3521 13.8472 10.2082C13.3968 9.76423 13.1764 9.14851 13.2542 8.54575C13.3158 8.05966 13.4875 7.70643 13.8375 7.3532C14.1 7.09071 14.4014 6.91572 14.7449 6.82498C14.9782 6.76341 15.487 6.76017 15.743 6.82174Z" fill="white"/>
<path d="M38.3204 4.00893C37.8699 4.06402 37.4324 4.21957 37.0695 4.45614C36.8394 4.60521 36.4667 4.94872 36.3339 5.13667L36.2658 5.23389L36.2626 4.75428V4.27791H34.8205H33.3784V8.81478V13.3517L34.814 13.3452L36.2464 13.3355L36.2626 10.7105L36.2788 8.08564L36.3533 7.90092C36.5834 7.33382 37.0144 6.95142 37.5815 6.81856C38.0158 6.71486 38.7352 6.76671 39.2958 6.93846C39.4125 6.97411 39.5162 6.99679 39.5226 6.99031C39.5324 6.98059 39.5972 6.35191 39.6685 5.58712C39.7689 4.49179 39.7884 4.19689 39.756 4.17421C39.6944 4.13856 39.3023 4.0543 39.0365 4.01866C38.8097 3.98949 38.5083 3.98301 38.3204 4.00893Z" fill="white"/>
</svg>
