<svg width="13" height="13" viewBox="0 0 13 13" fill="none" xmlns="http://www.w3.org/2000/svg">
<path d="M6.08711 0.00886734C2.33028 0.205173 -0.149665 3.15157 0.00701947 6.86698C0.0754565 8.49326 0.72921 9.89261 0.884094 11.436C0.923715 11.8359 0.808453 12.3293 1.2695 12.504C1.83681 12.7183 2.70668 12.3581 3.18214 12.0286C3.34422 11.9187 3.49911 11.7908 3.61797 11.6324C4.10964 11.9583 4.57609 12.2735 5.16141 12.414C7.7386 13.0317 10.5625 11.6179 11.8178 9.34692C14.1771 5.08041 10.9876 -0.246871 6.08711 0.00886734ZM4.62832 8.91288C4.42481 9.07137 4.2285 9.28748 4.00338 9.41175C3.6774 9.58645 3.57655 9.40455 3.45408 9.11639C3.06867 8.1997 3.02185 6.63825 3.24697 5.67833C3.54953 4.37263 4.55988 3.22361 5.94843 3.10114C7.35319 2.97687 8.6571 3.69006 9.24601 4.97775C10.5499 7.8431 7.21272 10.6724 4.62832 8.91468V8.91288Z" fill="white"/>
</svg>
