<svg width="2262" height="333" viewBox="0 0 2262 333" fill="none" xmlns="http://www.w3.org/2000/svg">
<path d="M0 159.56C0 84.34 0 46.73 23.37 23.37C46.73 0 84.34 0 159.56 0H172.86C248.08 0 285.69 0 309.06 23.37C332.43 46.74 332.43 84.35 332.43 159.57V172.87C332.43 248.09 332.43 285.7 309.06 309.07C285.69 332.44 248.08 332.44 172.86 332.44H159.56C84.34 332.44 46.73 332.44 23.36 309.07C0 285.69 0 248.08 0 172.86V159.56Z" fill="#005DE0"/>
<path d="M132.58 223.83L99.33 166.2L132.58 108.57H181.01L208.63 60.69H104.96L44.09 166.2L104.96 271.7H208.63L181.01 223.82H132.58V223.83Z" fill="white"/>
<path d="M287.57 166.26L234.86 257.63L207.24 209.75L232.33 166.26L207.16 122.64L234.78 74.77L287.57 166.26Z" fill="white"/>
<path d="M514.63 236.42C514.63 237.6 514.19 238.62 513.31 239.5C512.43 240.38 511.4 240.82 510.23 240.82H488.45C487.27 240.82 486.25 240.38 485.37 239.5C484.49 238.62 484.05 237.6 484.05 236.42V115.2C484.05 110.95 483.39 108.09 482.07 106.62C480.75 105.16 478.33 104.42 474.81 104.42H430.81C427.29 104.42 424.87 105.16 423.55 106.62C422.23 108.09 421.57 110.95 421.57 115.2V236.42C421.57 237.6 421.13 238.62 420.25 239.5C419.37 240.38 418.34 240.82 417.17 240.82H395.39C394.21 240.82 393.19 240.38 392.31 239.5C391.43 238.62 390.99 237.6 390.99 236.42V115.2C390.99 102 394.07 92.4 400.23 86.38C406.39 80.37 416.58 77.36 430.81 77.36H474.81C489.03 77.36 499.23 80.37 505.39 86.38C511.55 92.4 514.63 102 514.63 115.2V236.42Z" fill="black"/>
<path d="M594.93 144.46C594.19 141.53 592.58 140.06 590.09 140.06C587.6 140.06 585.98 141.53 585.25 144.46L563.69 237.08C563.39 238.11 562.88 238.99 562.15 239.72C561.42 240.45 560.53 240.82 559.51 240.82H537.51C536.33 240.82 535.38 240.49 534.65 239.83C533.91 239.17 533.55 238.26 533.55 237.08C533.55 236.94 533.58 236.79 533.66 236.64C533.73 236.5 533.77 236.28 533.77 235.98L559.51 137.64C560.83 132.51 562.73 128.48 565.23 125.54C567.72 122.61 570.4 120.37 573.26 118.83C576.12 117.29 579.05 116.3 582.06 115.86C585.06 115.42 587.74 115.2 590.09 115.2C592.44 115.2 595.11 115.42 598.12 115.86C601.12 116.3 604.06 117.29 606.92 118.83C609.78 120.37 612.45 122.61 614.95 125.54C617.44 128.48 619.35 132.51 620.67 137.64L646.63 235.98C646.63 236.28 646.66 236.5 646.74 236.64C646.81 236.79 646.85 236.94 646.85 237.08C646.85 238.26 646.48 239.17 645.75 239.83C645.01 240.49 644.06 240.82 642.89 240.82H620.89C619.86 240.82 618.98 240.46 618.25 239.72C617.51 238.99 617 238.11 616.71 237.08L594.93 144.46Z" fill="black"/>
<path d="M754.43 236.42C754.43 237.6 753.99 238.62 753.11 239.5C752.23 240.38 751.2 240.82 750.03 240.82H731.33C730.15 240.82 729.13 240.38 728.25 239.5C727.37 238.62 726.93 237.6 726.93 236.42V232.9C721.79 235.98 716.66 238.37 711.53 240.05C706.39 241.73 701.19 242.58 695.91 242.58C691.36 242.58 686.81 242.06 682.27 241.04C677.72 240.02 673.65 238.11 670.06 235.32C666.46 232.54 663.53 228.8 661.26 224.1C658.98 219.41 657.85 213.32 657.85 205.84V204.96C657.85 198.66 658.84 193.16 660.82 188.46C662.8 183.77 665.95 179.81 670.28 176.58C674.6 173.36 680.18 170.94 687 169.32C693.82 167.71 701.99 166.9 711.53 166.9H725.39V157.22C725.39 150.04 723.81 145.27 720.66 142.92C717.5 140.58 712.63 139.4 706.03 139.4C698.99 139.4 692.17 139.59 685.57 139.95C678.97 140.32 673.83 140.72 670.17 141.16H669.07C667.89 141.16 666.94 140.94 666.21 140.5C665.47 140.06 665.11 139.04 665.11 137.42V123.34C665.11 120.85 666.5 119.31 669.29 118.72C673.69 117.84 679 117.04 685.24 116.3C691.47 115.57 698.4 115.2 706.03 115.2C721.72 115.2 733.71 118.65 742 125.54C750.28 132.44 754.43 143 754.43 157.22V236.42ZM711.45 186.26C706.43 186.26 702.34 186.67 699.17 187.47C696 188.28 693.49 189.45 691.65 190.99C689.8 192.53 688.55 194.48 687.89 196.82C687.23 199.17 686.9 201.88 686.9 204.96V205.84C686.9 211.27 688.15 214.9 690.66 216.73C693.17 218.57 697.23 219.48 702.83 219.48C706.81 219.48 710.76 218.9 714.67 217.72C718.58 216.55 722.16 215.08 725.4 213.32V186.26H711.45Z" fill="black"/>
<path d="M836.26 140.5V236.2C836.26 237.38 835.82 238.44 834.94 239.39C834.06 240.35 833.03 240.82 831.86 240.82H811.62C810.44 240.82 809.42 240.35 808.54 239.39C807.66 238.44 807.22 237.38 807.22 236.2V140.5H773.12C771.94 140.5 770.92 140.1 770.04 139.29C769.16 138.49 768.72 137.5 768.72 136.32V121.14C768.72 119.97 769.16 118.94 770.04 118.06C770.92 117.18 771.94 116.74 773.12 116.74H870.36C871.53 116.74 872.56 117.18 873.44 118.06C874.32 118.94 874.76 119.97 874.76 121.14V136.32C874.76 137.5 874.32 138.49 873.44 139.29C872.56 140.1 871.53 140.5 870.36 140.5H836.26Z" fill="black"/>
<path d="M1045.48 187.36C1045.48 204.52 1041.3 218.02 1032.94 227.84C1024.58 237.67 1011.52 242.58 993.78 242.58C991.14 242.58 988.57 242.47 986.08 242.25C983.59 242.03 980.29 241.62 976.18 241.04V279.98C976.18 281.15 975.74 282.18 974.86 283.06C973.98 283.94 972.95 284.38 971.78 284.38H951.54C950.36 284.38 949.34 283.94 948.46 283.06C947.58 282.18 947.14 281.15 947.14 279.98V241.04C943.03 241.62 939.73 242.03 937.24 242.25C934.74 242.47 932.18 242.58 929.54 242.58C911.79 242.58 898.74 237.67 890.38 227.84C882.02 218.02 877.84 204.52 877.84 187.36V170.42C877.84 153.26 882.02 139.77 890.38 129.94C898.74 120.12 911.79 115.2 929.54 115.2C935.55 115.2 941.42 115.64 947.14 116.52V77.8C947.14 76.63 947.58 75.6 948.46 74.72C949.34 73.84 950.36 73.4 951.54 73.4H972C973.17 73.4 974.16 73.84 974.97 74.72C975.77 75.6 976.18 76.63 976.18 77.8V116.52C981.9 115.64 987.76 115.2 993.78 115.2C1011.52 115.2 1024.58 120.12 1032.94 129.94C1041.3 139.77 1045.48 153.26 1045.48 170.42V187.36ZM947.14 140.5C945.08 140.06 942.63 139.7 939.77 139.4C936.91 139.11 933.5 138.96 929.54 138.96C924.84 138.96 920.99 139.77 917.99 141.38C914.98 143 912.67 145.2 911.06 147.98C909.44 150.77 908.34 154.07 907.76 157.88C907.17 161.7 906.88 165.88 906.88 170.42V187.36C906.88 191.91 907.17 196.09 907.76 199.9C908.34 203.72 909.44 207.02 911.06 209.8C912.67 212.59 914.98 214.79 917.99 216.4C920.99 218.02 924.84 218.82 929.54 218.82C932.18 218.82 935 218.68 938.01 218.38C941.01 218.09 944.06 217.72 947.14 217.28V140.5ZM1016.44 170.42C1016.44 165.88 1016.14 161.7 1015.56 157.88C1014.97 154.07 1013.84 150.77 1012.15 147.98C1010.46 145.2 1008.15 143 1005.22 141.38C1002.28 139.77 998.47 138.96 993.78 138.96C989.82 138.96 986.41 139.11 983.55 139.4C980.69 139.7 978.23 140.06 976.18 140.5V217.28C979.26 217.72 982.3 218.09 985.31 218.38C988.31 218.68 991.14 218.82 993.78 218.82C998.47 218.82 1002.28 218.02 1005.22 216.4C1008.15 214.79 1010.46 212.59 1012.15 209.8C1013.84 207.02 1014.97 203.72 1015.56 199.9C1016.14 196.09 1016.44 191.91 1016.44 187.36V170.42Z" fill="black"/>
<path d="M1165.16 187.8C1165.16 195.72 1164.02 203.02 1161.75 209.69C1159.47 216.37 1156.14 222.12 1151.74 226.96C1147.34 231.8 1141.87 235.62 1135.35 238.4C1128.82 241.18 1121.23 242.58 1112.58 242.58C1103.93 242.58 1096.33 241.18 1089.81 238.4C1083.28 235.62 1077.82 231.8 1073.42 226.96C1069.02 222.12 1065.68 216.37 1063.41 209.69C1061.13 203.02 1060 195.72 1060 187.8V169.98C1060 162.06 1061.13 154.77 1063.41 148.09C1065.68 141.42 1069.02 135.66 1073.42 130.82C1077.82 125.98 1083.28 122.17 1089.81 119.38C1096.33 116.6 1103.92 115.2 1112.58 115.2C1121.24 115.2 1128.82 116.6 1135.35 119.38C1141.87 122.17 1147.34 125.98 1151.74 130.82C1156.14 135.66 1159.47 141.42 1161.75 148.09C1164.02 154.77 1165.16 162.06 1165.16 169.98V187.8ZM1136.12 169.98C1136.12 160.89 1134.14 153.67 1130.18 148.31C1126.22 142.96 1120.35 140.28 1112.58 140.28C1104.81 140.28 1098.94 142.96 1094.98 148.31C1091.02 153.67 1089.04 160.89 1089.04 169.98V187.8C1089.04 196.9 1091.02 204.12 1094.98 209.47C1098.94 214.83 1104.8 217.5 1112.58 217.5C1120.36 217.5 1126.22 214.83 1130.18 209.47C1134.14 204.12 1136.12 196.9 1136.12 187.8V169.98Z" fill="black"/>
<path d="M1286.16 187.36C1286.16 204.67 1281.83 218.2 1273.18 227.95C1264.52 237.71 1251.32 242.58 1233.58 242.58C1230.94 242.58 1227.78 242.47 1224.12 242.25C1220.45 242.03 1216.56 241.62 1212.46 241.04V279.98C1212.46 281.15 1212.02 282.18 1211.14 283.06C1210.26 283.94 1209.23 284.38 1208.06 284.38H1187.82C1186.64 284.38 1185.62 283.94 1184.74 283.06C1183.86 282.18 1183.42 281.15 1183.42 279.98V126.86C1183.42 125.25 1183.78 124.04 1184.52 123.23C1185.25 122.43 1186.86 121.66 1189.36 120.92C1196.25 119.16 1203.58 117.77 1211.36 116.74C1219.13 115.72 1226.54 115.2 1233.58 115.2C1251.32 115.2 1264.52 120.08 1273.18 129.83C1281.83 139.59 1286.16 153.12 1286.16 170.42V187.36ZM1257.12 170.42C1257.12 165.88 1256.79 161.7 1256.13 157.88C1255.47 154.07 1254.26 150.77 1252.5 147.98C1250.74 145.2 1248.32 143 1245.24 141.38C1242.16 139.77 1238.27 138.96 1233.58 138.96C1229.62 138.96 1225.62 139.11 1221.59 139.4C1217.55 139.7 1214.51 140.06 1212.46 140.5V217.28C1215.54 217.72 1219.17 218.09 1223.35 218.38C1227.53 218.68 1230.94 218.82 1233.58 218.82C1238.27 218.82 1242.16 218.02 1245.24 216.4C1248.32 214.79 1250.74 212.59 1252.5 209.8C1254.26 207.02 1255.47 203.72 1256.13 199.9C1256.79 196.09 1257.12 191.91 1257.12 187.36V170.42Z" fill="black"/>
<path d="M1427.4 240.82H1406.94C1406.2 240.82 1405.51 240.46 1404.85 239.72C1404.19 238.99 1403.86 238.26 1403.86 237.52V160.08C1403.86 159.06 1403.64 158.54 1403.2 158.54L1402.32 159.42L1384.94 191.1C1384.5 191.98 1383.65 192.68 1382.41 193.19C1381.16 193.71 1379.95 193.96 1378.78 193.96H1358.54C1357.22 193.96 1355.93 193.71 1354.69 193.19C1353.44 192.68 1352.52 191.98 1351.94 191.1L1334.56 159.42L1333.68 158.54C1333.24 158.54 1333.02 159.06 1333.02 160.08V237.52C1333.02 238.26 1332.69 238.99 1332.03 239.72C1331.37 240.46 1330.67 240.82 1329.94 240.82H1309.48C1307.13 240.82 1305.96 240.02 1305.96 238.4V123.78C1305.96 121.88 1306.76 120.26 1308.38 118.94C1309.99 117.62 1311.82 116.96 1313.88 116.96H1330.6C1332.21 116.96 1333.68 117.37 1335 118.17C1336.32 118.98 1337.34 119.97 1338.08 121.14L1366.02 172.18C1366.75 173.65 1367.63 174.38 1368.66 174.38C1369.39 174.38 1370.12 173.65 1370.86 172.18L1398.8 121.14C1399.53 119.97 1400.56 118.98 1401.88 118.17C1403.2 117.37 1404.66 116.96 1406.28 116.96H1423C1425.05 116.96 1426.88 117.62 1428.5 118.94C1430.11 120.26 1430.92 121.88 1430.92 123.78V238.4C1430.92 240.02 1429.74 240.82 1427.4 240.82Z" fill="black"/>
<path d="M1547.07 236.42C1547.07 237.6 1546.63 238.62 1545.75 239.5C1544.87 240.38 1543.84 240.82 1542.67 240.82H1523.97C1522.79 240.82 1521.77 240.38 1520.89 239.5C1520.01 238.62 1519.57 237.6 1519.57 236.42V232.9C1514.43 235.98 1509.3 238.37 1504.17 240.05C1499.03 241.73 1493.83 242.58 1488.55 242.58C1484 242.58 1479.45 242.06 1474.91 241.04C1470.36 240.02 1466.29 238.11 1462.7 235.32C1459.1 232.54 1456.17 228.8 1453.9 224.1C1451.62 219.41 1450.49 213.32 1450.49 205.84V204.96C1450.49 198.66 1451.48 193.16 1453.46 188.46C1455.44 183.77 1458.59 179.81 1462.92 176.58C1467.24 173.36 1472.82 170.94 1479.64 169.32C1486.46 167.71 1494.63 166.9 1504.17 166.9H1518.03V157.22C1518.03 150.04 1516.45 145.27 1513.3 142.92C1510.14 140.58 1505.27 139.4 1498.67 139.4C1491.63 139.4 1484.81 139.59 1478.21 139.95C1471.61 140.32 1466.47 140.72 1462.81 141.16H1461.71C1460.53 141.16 1459.58 140.94 1458.85 140.5C1458.11 140.06 1457.75 139.04 1457.75 137.42V123.34C1457.75 120.85 1459.14 119.31 1461.93 118.72C1466.33 117.84 1471.64 117.04 1477.88 116.3C1484.11 115.57 1491.04 115.2 1498.67 115.2C1514.36 115.2 1526.35 118.65 1534.64 125.54C1542.92 132.44 1547.07 143 1547.07 157.22V236.42ZM1504.09 186.26C1499.07 186.26 1494.98 186.67 1491.81 187.47C1488.64 188.28 1486.13 189.45 1484.29 190.99C1482.44 192.53 1481.19 194.48 1480.53 196.82C1479.87 199.17 1479.54 201.88 1479.54 204.96V205.84C1479.54 211.27 1480.79 214.9 1483.3 216.73C1485.81 218.57 1489.87 219.48 1495.47 219.48C1499.45 219.48 1503.4 218.9 1507.31 217.72C1511.22 216.55 1514.8 215.08 1518.04 213.32V186.26H1504.09Z" fill="black"/>
<path d="M1729.98 128.368C1729.98 138.042 1728.22 146.177 1724.7 152.773C1721.33 159.369 1716.71 164.719 1710.85 168.824C1705.13 172.781 1698.46 175.639 1690.84 177.398C1683.22 179.011 1675.16 179.817 1666.66 179.817C1663.73 179.817 1660.35 179.744 1656.54 179.597C1652.73 179.304 1649.58 179.084 1647.09 178.937V236.323C1647.09 237.495 1646.65 238.521 1645.77 239.401C1645.04 240.28 1644.08 240.72 1642.91 240.72H1620.92C1619.75 240.72 1618.73 240.28 1617.85 239.401C1616.97 238.521 1616.53 237.495 1616.53 236.323V85.0542C1616.53 82.8555 1617.11 81.3164 1618.29 80.4369C1619.61 79.4109 1621.36 78.7513 1623.56 78.4581C1629.28 77.5787 1635.88 76.9191 1643.35 76.4793C1650.83 75.893 1658.6 75.5999 1666.66 75.5999C1675.16 75.5999 1683.22 76.406 1690.84 78.0184C1698.46 79.6308 1705.13 82.4157 1710.85 86.3734C1716.71 90.331 1721.33 95.6078 1724.7 102.204C1728.22 108.653 1729.98 116.715 1729.98 126.389V128.368ZM1699.64 126.389C1699.64 117.155 1696.85 110.632 1691.28 106.821C1685.86 102.863 1677.65 100.885 1666.66 100.885C1665.48 100.885 1663.95 100.958 1662.04 101.104C1660.28 101.104 1658.45 101.178 1656.54 101.324C1654.64 101.324 1652.81 101.398 1651.05 101.544C1649.43 101.544 1648.11 101.617 1647.09 101.764V154.092C1647.97 154.092 1649.29 154.166 1651.05 154.312C1652.95 154.312 1654.86 154.386 1656.76 154.532C1658.82 154.532 1660.72 154.605 1662.48 154.752C1664.39 154.752 1665.78 154.752 1666.66 154.752C1678.53 154.752 1686.96 152.553 1691.94 148.156C1697.07 143.759 1699.64 137.163 1699.64 128.368V126.389Z" fill="black"/>
<path d="M1853.32 183.335C1853.32 186.999 1851.85 188.831 1848.92 188.831H1777.25V189.491C1777.25 192.716 1777.61 196.014 1778.34 199.385C1779.08 202.61 1780.4 205.615 1782.3 208.4C1784.35 211.038 1787.07 213.237 1790.44 214.996C1793.96 216.608 1798.35 217.414 1803.63 217.414C1811.69 217.414 1819.24 217.194 1826.28 216.755C1833.46 216.168 1839.39 215.655 1844.08 215.215H1844.74C1845.92 215.215 1846.87 215.509 1847.6 216.095C1848.34 216.535 1848.7 217.341 1848.7 218.514V233.025C1848.7 234.784 1848.41 236.103 1847.82 236.982C1847.38 237.862 1846.14 238.448 1844.08 238.741C1840.57 239.474 1837.27 240.06 1834.19 240.5C1831.11 240.94 1827.96 241.306 1824.74 241.6C1821.66 241.893 1818.21 242.113 1814.4 242.259C1810.74 242.406 1806.41 242.479 1801.43 242.479C1795.86 242.479 1789.92 241.673 1783.62 240.06C1777.46 238.302 1771.75 235.37 1766.47 231.266C1761.19 227.015 1756.8 221.372 1753.28 214.336C1749.91 207.154 1748.22 198.139 1748.22 187.292V171.022C1748.22 162.521 1749.4 154.825 1751.74 147.936C1754.09 141.047 1757.46 135.184 1761.85 130.347C1766.4 125.51 1771.97 121.772 1778.56 119.134C1785.16 116.495 1792.64 115.176 1800.99 115.176C1809.49 115.176 1816.97 116.568 1823.42 119.353C1830.01 121.992 1835.51 125.803 1839.91 130.787C1844.3 135.77 1847.6 141.707 1849.8 148.596C1852.15 155.338 1853.32 162.814 1853.32 171.022V183.335ZM1824.08 167.284C1824.08 158.636 1821.95 151.967 1817.7 147.277C1813.45 142.586 1807.88 140.241 1800.99 140.241C1794.1 140.241 1788.46 142.586 1784.06 147.277C1779.66 151.82 1777.46 158.49 1777.46 167.284V168.164H1824.08V167.284Z" fill="black"/>
<path d="M1999.14 238.741C1999.14 240.06 1998.04 240.72 1995.84 240.72H1966.38C1964.03 240.72 1962.35 239.914 1961.32 238.302L1910.97 163.327V236.323C1910.97 237.495 1910.53 238.521 1909.65 239.401C1908.77 240.28 1907.75 240.72 1906.58 240.72H1884.81C1883.64 240.72 1882.61 240.28 1881.73 239.401C1880.85 238.521 1880.41 237.495 1880.41 236.323V81.7561C1880.41 80.5835 1880.85 79.6308 1881.73 78.8979C1882.61 78.0184 1883.64 77.5787 1884.81 77.5787H1906.58C1907.75 77.5787 1908.77 78.0184 1909.65 78.8979C1910.53 79.6308 1910.97 80.5835 1910.97 81.7561V151.674L1964.84 79.3376C1965.43 78.6047 1966.09 78.165 1966.82 78.0184C1967.7 77.7252 1968.72 77.5787 1969.9 77.5787H1994.96C1997.75 77.5787 1999.14 78.4581 1999.14 80.2171C1999.14 81.2431 1998.63 82.4157 1997.6 83.7349L1941.31 156.511L1998.04 236.103C1998.77 237.275 1999.14 238.155 1999.14 238.741Z" fill="black"/>
<path d="M2110.98 187.732C2110.98 195.647 2109.8 202.976 2107.46 209.719C2105.26 216.315 2101.96 222.031 2097.56 226.868C2093.17 231.706 2087.67 235.517 2081.07 238.302C2074.62 241.087 2067.08 242.479 2058.43 242.479C2049.78 242.479 2042.16 241.087 2035.56 238.302C2029.11 235.517 2023.69 231.706 2019.29 226.868C2014.89 222.031 2011.52 216.315 2009.18 209.719C2006.98 202.976 2005.88 195.647 2005.88 187.732V169.923C2005.88 162.008 2006.98 154.752 2009.18 148.156C2011.52 141.413 2014.89 135.624 2019.29 130.787C2023.69 125.949 2029.11 122.138 2035.56 119.353C2042.16 116.568 2049.78 115.176 2058.43 115.176C2067.08 115.176 2074.62 116.568 2081.07 119.353C2087.67 122.138 2093.17 125.949 2097.56 130.787C2101.96 135.624 2105.26 141.413 2107.46 148.156C2109.8 154.752 2110.98 162.008 2110.98 169.923V187.732ZM2081.95 169.923C2081.95 160.835 2079.97 153.653 2076.02 148.376C2072.06 142.952 2066.2 140.241 2058.43 140.241C2050.66 140.241 2044.8 142.952 2040.84 148.376C2036.88 153.653 2034.9 160.835 2034.9 169.923V187.732C2034.9 196.82 2036.88 204.076 2040.84 209.499C2044.8 214.776 2050.66 217.414 2058.43 217.414C2066.2 217.414 2072.06 214.776 2076.02 209.499C2079.97 204.076 2081.95 196.82 2081.95 187.732V169.923Z" fill="black"/>
<path d="M2149.6 240.72V266.664C2149.6 267.837 2149.16 268.863 2148.28 269.743C2147.41 270.622 2146.38 271.062 2145.21 271.062H2124.98C2123.81 271.062 2122.78 270.622 2121.9 269.743C2121.02 268.863 2120.58 267.837 2120.58 266.664V221.152C2120.58 219.979 2121.02 218.953 2121.9 218.074C2122.78 217.194 2123.81 216.755 2124.98 216.755H2139.93L2161.04 137.602C2162.36 132.472 2164.26 128.441 2166.75 125.51C2169.25 122.578 2171.88 120.379 2174.67 118.914C2177.6 117.301 2180.53 116.275 2183.46 115.836C2186.54 115.396 2189.25 115.176 2191.6 115.176C2193.94 115.176 2196.58 115.396 2199.51 115.836C2202.45 116.275 2205.3 117.301 2208.09 118.914C2211.02 120.379 2213.73 122.578 2216.22 125.51C2218.72 128.441 2220.69 132.472 2222.16 137.602L2244.37 216.755H2257.12C2258.29 216.755 2259.32 217.194 2260.2 218.074C2261.08 218.953 2261.52 219.979 2261.52 221.152V266.664C2261.52 267.837 2261.08 268.863 2260.2 269.743C2259.32 270.622 2258.29 271.062 2257.12 271.062H2236.89C2235.72 271.062 2234.69 270.622 2233.81 269.743C2232.93 268.863 2232.49 267.837 2232.49 266.664V240.72H2149.6ZM2169.83 216.755H2214.68L2195.56 144.418C2194.97 142.073 2193.65 140.9 2191.6 140.9C2189.55 140.9 2188.23 142.073 2187.64 144.418L2169.83 216.755Z" fill="black"/>
</svg>
