<?xml version="1.0" encoding="UTF-8"?>
<svg id="_Слой_2" data-name="Слой 2" xmlns="http://www.w3.org/2000/svg" viewBox="0 0 2271.52 332.42">
  <defs>
    <style>
      .cls-1, .cls-2 {
        fill: #fff;
      }

      .cls-3 {
        fill: #005de0;
      }

      .cls-2 {
        opacity: .5;
      }
    </style>
  </defs>
  <g id="_Лого_reCode_RUS_FULL_v2_" data-name="Лого reCode [RUS FULL v2]">
    <path class="cls-3" d="m0,159.56C0,84.34,0,46.73,23.37,23.37,46.73,0,84.34,0,159.56,0h13.3c75.22,0,112.83,0,136.2,23.37,23.37,23.37,23.37,60.98,23.37,136.2v13.3c0,75.22,0,112.83-23.37,136.2-23.37,23.37-60.98,23.37-136.2,23.37h-13.3c-75.22,0-112.83,0-136.2-23.37C0,285.69,0,248.08,0,172.86v-13.3Z"/>
    <path class="cls-1" d="m132.58,223.83l-33.25-57.63,33.25-57.63h48.43l27.62-47.88h-103.67l-60.87,105.51,60.87,105.5h103.67l-27.62-47.88h-48.43Z"/>
    <polygon class="cls-2" points="287.57 166.26 234.86 257.63 207.24 209.75 232.33 166.26 207.16 122.64 234.78 74.77 287.57 166.26"/>
  </g>
  <g>
    <path d="m514.63,236.42c0,1.18-.44,2.2-1.32,3.08s-1.91,1.32-3.08,1.32h-21.78c-1.18,0-2.2-.44-3.08-1.32-.88-.88-1.32-1.9-1.32-3.08v-121.22c0-4.25-.66-7.11-1.98-8.58-1.32-1.46-3.74-2.2-7.26-2.2h-44c-3.52,0-5.94.74-7.26,2.2-1.32,1.47-1.98,4.33-1.98,8.58v121.22c0,1.18-.44,2.2-1.32,3.08s-1.91,1.32-3.08,1.32h-21.78c-1.18,0-2.2-.44-3.08-1.32-.88-.88-1.32-1.9-1.32-3.08v-121.22c0-13.2,3.08-22.8,9.24-28.82,6.16-6.01,16.35-9.02,30.58-9.02h44c14.22,0,24.42,3.01,30.58,9.02,6.16,6.02,9.24,15.62,9.24,28.82v121.22Z"/>
    <path d="m594.93,144.46c-.74-2.93-2.35-4.4-4.84-4.4s-4.11,1.47-4.84,4.4l-21.56,92.62c-.3,1.03-.81,1.91-1.54,2.64s-1.62,1.1-2.64,1.1h-22c-1.18,0-2.13-.33-2.86-.99-.74-.66-1.1-1.57-1.1-2.75,0-.14.03-.29.11-.44.07-.14.11-.36.11-.66l25.74-98.34c1.32-5.13,3.22-9.16,5.72-12.1,2.49-2.93,5.17-5.17,8.03-6.71,2.86-1.54,5.79-2.53,8.8-2.97,3-.44,5.68-.66,8.03-.66s5.02.22,8.03.66c3,.44,5.94,1.43,8.8,2.97,2.86,1.54,5.53,3.78,8.03,6.71,2.49,2.94,4.4,6.97,5.72,12.1l25.96,98.34c0,.3.03.52.11.66.07.15.11.3.11.44,0,1.18-.37,2.09-1.1,2.75-.74.66-1.69.99-2.86.99h-22c-1.03,0-1.91-.36-2.64-1.1-.74-.73-1.25-1.61-1.54-2.64l-21.78-92.62Z"/>
    <path d="m754.43,236.42c0,1.18-.44,2.2-1.32,3.08-.88.88-1.91,1.32-3.08,1.32h-18.7c-1.18,0-2.2-.44-3.08-1.32-.88-.88-1.32-1.9-1.32-3.08v-3.52c-5.14,3.08-10.27,5.47-15.4,7.15-5.14,1.68-10.34,2.53-15.62,2.53-4.55,0-9.1-.52-13.64-1.54-4.55-1.02-8.62-2.93-12.21-5.72-3.6-2.78-6.53-6.52-8.8-11.22-2.28-4.69-3.41-10.78-3.41-18.26v-.88c0-6.3.99-11.8,2.97-16.5,1.98-4.69,5.13-8.65,9.46-11.88,4.32-3.22,9.9-5.64,16.72-7.26,6.82-1.61,14.99-2.42,24.53-2.42h13.86v-9.68c0-7.18-1.58-11.95-4.73-14.3-3.16-2.34-8.03-3.52-14.63-3.52-7.04,0-13.86.19-20.46.55-6.6.37-11.74.77-15.4,1.21h-1.1c-1.18,0-2.13-.22-2.86-.66-.74-.44-1.1-1.46-1.1-3.08v-14.08c0-2.49,1.39-4.03,4.18-4.62,4.4-.88,9.71-1.68,15.95-2.42,6.23-.73,13.16-1.1,20.79-1.1,15.69,0,27.68,3.45,35.97,10.34,8.28,6.9,12.43,17.46,12.43,31.68v79.2Zm-29.04-50.16h-13.94c-5.02,0-9.11.41-12.28,1.21-3.17.81-5.68,1.98-7.52,3.52-1.85,1.54-3.1,3.49-3.76,5.83-.66,2.35-.99,5.06-.99,8.14v.88c0,5.43,1.25,9.06,3.76,10.89,2.51,1.84,6.57,2.75,12.17,2.75,3.98,0,7.93-.58,11.84-1.76,3.91-1.17,7.49-2.64,10.73-4.4v-27.06Z"/>
    <path d="m836.26,140.5v95.7c0,1.18-.44,2.24-1.32,3.19-.88.96-1.91,1.43-3.08,1.43h-20.24c-1.18,0-2.2-.47-3.08-1.43-.88-.95-1.32-2.01-1.32-3.19v-95.7h-34.1c-1.18,0-2.2-.4-3.08-1.21-.88-.8-1.32-1.79-1.32-2.97v-15.18c0-1.17.44-2.2,1.32-3.08.88-.88,1.9-1.32,3.08-1.32h97.24c1.17,0,2.2.44,3.08,1.32.88.88,1.32,1.91,1.32,3.08v15.18c0,1.18-.44,2.17-1.32,2.97-.88.81-1.91,1.21-3.08,1.21h-34.1Z"/>
    <path d="m1045.48,187.36c0,17.16-4.18,30.66-12.54,40.48-8.36,9.83-21.42,14.74-39.16,14.74-2.64,0-5.21-.11-7.7-.33-2.49-.22-5.79-.63-9.9-1.21v38.94c0,1.17-.44,2.2-1.32,3.08-.88.88-1.91,1.32-3.08,1.32h-20.24c-1.18,0-2.2-.44-3.08-1.32s-1.32-1.91-1.32-3.08v-38.94c-4.11.58-7.41.99-9.9,1.21-2.5.22-5.06.33-7.7.33-17.75,0-30.8-4.91-39.16-14.74-8.36-9.82-12.54-23.32-12.54-40.48v-16.94c0-17.16,4.18-30.65,12.54-40.48,8.36-9.82,21.41-14.74,39.16-14.74,6.01,0,11.88.44,17.6,1.32v-38.72c0-1.17.44-2.2,1.32-3.08.88-.88,1.9-1.32,3.08-1.32h20.46c1.17,0,2.16.44,2.97,1.32.8.88,1.21,1.91,1.21,3.08v38.72c5.72-.88,11.58-1.32,17.6-1.32,17.74,0,30.8,4.92,39.16,14.74,8.36,9.83,12.54,23.32,12.54,40.48v16.94Zm-98.34-46.86c-2.06-.44-4.51-.8-7.37-1.1-2.86-.29-6.27-.44-10.23-.44-4.7,0-8.55.81-11.55,2.42-3.01,1.62-5.32,3.82-6.93,6.6-1.62,2.79-2.72,6.09-3.3,9.9-.59,3.82-.88,8-.88,12.54v16.94c0,4.55.29,8.73.88,12.54.58,3.82,1.68,7.12,3.3,9.9,1.61,2.79,3.92,4.99,6.93,6.6,3,1.62,6.85,2.42,11.55,2.42,2.64,0,5.46-.14,8.47-.44,3-.29,6.05-.66,9.13-1.1v-76.78Zm69.3,29.92c0-4.54-.3-8.72-.88-12.54-.59-3.81-1.72-7.11-3.41-9.9-1.69-2.78-4-4.98-6.93-6.6-2.94-1.61-6.75-2.42-11.44-2.42-3.96,0-7.37.15-10.23.44-2.86.3-5.32.66-7.37,1.1v76.78c3.08.44,6.12.81,9.13,1.1,3,.3,5.83.44,8.47.44,4.69,0,8.5-.8,11.44-2.42,2.93-1.61,5.24-3.81,6.93-6.6,1.69-2.78,2.82-6.08,3.41-9.9.58-3.81.88-7.99.88-12.54v-16.94Z"/>
    <path d="m1165.16,187.8c0,7.92-1.14,15.22-3.41,21.89-2.28,6.68-5.61,12.43-10.01,17.27-4.4,4.84-9.87,8.66-16.39,11.44-6.53,2.78-14.12,4.18-22.77,4.18s-16.25-1.4-22.77-4.18c-6.53-2.78-11.99-6.6-16.39-11.44-4.4-4.84-7.74-10.59-10.01-17.27-2.28-6.67-3.41-13.97-3.41-21.89v-17.82c0-7.92,1.13-15.21,3.41-21.89,2.27-6.67,5.61-12.43,10.01-17.27,4.4-4.84,9.86-8.65,16.39-11.44,6.52-2.78,14.11-4.18,22.77-4.18s16.24,1.4,22.77,4.18c6.52,2.79,11.99,6.6,16.39,11.44,4.4,4.84,7.73,10.6,10.01,17.27,2.27,6.68,3.41,13.97,3.41,21.89v17.82Zm-29.04-17.82c0-9.09-1.98-16.31-5.94-21.67-3.96-5.35-9.83-8.03-17.6-8.03s-13.64,2.68-17.6,8.03c-3.96,5.36-5.94,12.58-5.94,21.67v17.82c0,9.1,1.98,16.32,5.94,21.67,3.96,5.36,9.82,8.03,17.6,8.03s13.64-2.67,17.6-8.03c3.96-5.35,5.94-12.57,5.94-21.67v-17.82Z"/>
    <path d="m1286.16,187.36c0,17.31-4.33,30.84-12.98,40.59-8.66,9.76-21.86,14.63-39.6,14.63-2.64,0-5.8-.11-9.46-.33-3.67-.22-7.56-.63-11.66-1.21v38.94c0,1.17-.44,2.2-1.32,3.08-.88.88-1.91,1.32-3.08,1.32h-20.24c-1.18,0-2.2-.44-3.08-1.32-.88-.88-1.32-1.91-1.32-3.08V126.86c0-1.61.36-2.82,1.1-3.63.73-.8,2.34-1.57,4.84-2.31,6.89-1.76,14.22-3.15,22-4.18,7.77-1.02,15.18-1.54,22.22-1.54,17.74,0,30.94,4.88,39.6,14.63,8.65,9.76,12.98,23.29,12.98,40.59v16.94Zm-29.04-16.94c0-4.54-.33-8.72-.99-12.54-.66-3.81-1.87-7.11-3.63-9.9-1.76-2.78-4.18-4.98-7.26-6.6-3.08-1.61-6.97-2.42-11.66-2.42-3.96,0-7.96.15-11.99.44-4.04.3-7.08.66-9.13,1.1v76.78c3.08.44,6.71.81,10.89,1.1,4.18.3,7.59.44,10.23.44,4.69,0,8.58-.8,11.66-2.42,3.08-1.61,5.5-3.81,7.26-6.6,1.76-2.78,2.97-6.08,3.63-9.9.66-3.81.99-7.99.99-12.54v-16.94Z"/>
    <path d="m1427.4,240.82h-20.46c-.74,0-1.43-.36-2.09-1.1-.66-.73-.99-1.46-.99-2.2v-77.44c0-1.02-.22-1.54-.66-1.54l-.88.88-17.38,31.68c-.44.88-1.29,1.58-2.53,2.09-1.25.52-2.46.77-3.63.77h-20.24c-1.32,0-2.61-.25-3.85-.77-1.25-.51-2.17-1.21-2.75-2.09l-17.38-31.68-.88-.88c-.44,0-.66.52-.66,1.54v77.44c0,.74-.33,1.47-.99,2.2-.66.74-1.36,1.1-2.09,1.1h-20.46c-2.35,0-3.52-.8-3.52-2.42v-114.62c0-1.9.8-3.52,2.42-4.84,1.61-1.32,3.44-1.98,5.5-1.98h16.72c1.61,0,3.08.41,4.4,1.21,1.32.81,2.34,1.8,3.08,2.97l27.94,51.04c.73,1.47,1.61,2.2,2.64,2.2.73,0,1.46-.73,2.2-2.2l27.94-51.04c.73-1.17,1.76-2.16,3.08-2.97,1.32-.8,2.78-1.21,4.4-1.21h16.72c2.05,0,3.88.66,5.5,1.98,1.61,1.32,2.42,2.94,2.42,4.84v114.62c0,1.62-1.18,2.42-3.52,2.42Z"/>
    <path d="m1547.07,236.42c0,1.18-.44,2.2-1.32,3.08-.88.88-1.91,1.32-3.08,1.32h-18.7c-1.18,0-2.2-.44-3.08-1.32-.88-.88-1.32-1.9-1.32-3.08v-3.52c-5.14,3.08-10.27,5.47-15.4,7.15-5.14,1.68-10.34,2.53-15.62,2.53-4.55,0-9.1-.52-13.64-1.54-4.55-1.02-8.62-2.93-12.21-5.72-3.6-2.78-6.53-6.52-8.8-11.22-2.28-4.69-3.41-10.78-3.41-18.26v-.88c0-6.3.99-11.8,2.97-16.5,1.98-4.69,5.13-8.65,9.46-11.88,4.32-3.22,9.9-5.64,16.72-7.26,6.82-1.61,14.99-2.42,24.53-2.42h13.86v-9.68c0-7.18-1.58-11.95-4.73-14.3-3.16-2.34-8.03-3.52-14.63-3.52-7.04,0-13.86.19-20.46.55-6.6.37-11.74.77-15.4,1.21h-1.1c-1.18,0-2.13-.22-2.86-.66-.74-.44-1.1-1.46-1.1-3.08v-14.08c0-2.49,1.39-4.03,4.18-4.62,4.4-.88,9.71-1.68,15.95-2.42,6.23-.73,13.16-1.1,20.79-1.1,15.69,0,27.68,3.45,35.97,10.34,8.28,6.9,12.43,17.46,12.43,31.68v79.2Zm-29.04-50.16h-13.94c-5.02,0-9.11.41-12.28,1.21-3.17.81-5.68,1.98-7.52,3.52-1.85,1.54-3.1,3.49-3.76,5.83-.66,2.35-.99,5.06-.99,8.14v.88c0,5.43,1.25,9.06,3.76,10.89,2.51,1.84,6.57,2.75,12.17,2.75,3.98,0,7.93-.58,11.84-1.76,3.91-1.17,7.49-2.64,10.73-4.4v-27.06Z"/>
    <path d="m1679.95,138.52c-.88.88-1.91,1.32-3.08,1.32-6.02,0-11.41.7-16.17,2.09-4.77,1.4-9.5,3.34-14.19,5.83v88.44c0,1.18-.44,2.24-1.32,3.19-.88.96-1.91,1.43-3.08,1.43h-20.24c-1.18,0-2.2-.47-3.08-1.43-.88-.95-1.32-2.01-1.32-3.19v-115.06c0-1.17.44-2.2,1.32-3.08.88-.88,1.9-1.32,3.08-1.32h19.14c1.17,0,2.2.44,3.08,1.32.88.88,1.32,1.91,1.32,3.08v4.62c5.42-4.25,10.92-7.07,16.5-8.47,5.57-1.39,10.56-2.09,14.96-2.09,1.17,0,2.2.44,3.08,1.32.88.88,1.32,1.91,1.32,3.08v15.84c0,1.18-.44,2.2-1.32,3.08Z"/>
    <path d="m1790.39,183.4c0,3.67-1.47,5.5-4.4,5.5h-71.72v.66c0,3.23.36,6.49,1.1,9.79.73,3.3,2.09,6.31,4.07,9.02,1.98,2.72,4.69,4.92,8.14,6.6,3.44,1.69,7.81,2.53,13.09,2.53,8.06,0,15.65-.25,22.77-.77,7.11-.51,13.01-.99,17.71-1.43h.66c1.17,0,2.12.26,2.86.77.73.52,1.1,1.36,1.1,2.53v14.52c0,1.76-.26,3.08-.77,3.96-.52.88-1.8,1.47-3.85,1.76-3.52.74-6.82,1.32-9.9,1.76-3.08.44-6.2.8-9.35,1.1-3.16.29-6.6.51-10.34.66-3.74.14-8.11.22-13.09.22-5.58,0-11.47-.85-17.7-2.53-6.23-1.68-11.96-4.62-17.2-8.8-5.24-4.18-9.57-9.82-12.99-16.94-3.42-7.11-5.13-16.09-5.13-26.95v-16.28c0-8.5,1.17-16.2,3.51-23.1,2.34-6.89,5.74-12.76,10.21-17.6,4.46-4.84,9.99-8.58,16.57-11.22,6.59-2.64,14.05-3.96,22.4-3.96s15.99,1.36,22.5,4.07c6.51,2.72,11.96,6.57,16.36,11.55,4.39,4.99,7.72,10.89,9.99,17.71s3.4,14.34,3.4,22.55v12.32Zm-29.04-16.06c0-8.65-2.14-15.32-6.41-20.02-4.28-4.69-9.88-7.04-16.8-7.04s-12.6,2.31-17.02,6.93c-4.42,4.62-6.63,11.33-6.63,20.13v.88h46.86v-.88Z"/>
    <path d="m1906.99,237.41c-.88.66-2.06,1.21-3.52,1.65-.88.3-2.39.63-4.51.99-2.13.37-4.73.74-7.81,1.1s-6.53.69-10.34.99c-3.82.29-7.85.44-12.1.44-6.6,0-13.57-.96-20.9-2.86s-14.02-5.39-20.06-10.45c-6.04-5.06-11.07-11.91-15.07-20.57-4-8.65-6.01-19.8-6.01-33.44v-32.34c0-13.78,2-25.04,6.01-33.77,4-8.72,9.03-15.58,15.07-20.57,6.04-4.98,12.73-8.39,20.06-10.23,7.33-1.83,14.3-2.75,20.9-2.75,4.25,0,8.29.15,12.1.44,3.81.3,7.26.63,10.34.99,3.08.37,5.68.77,7.81,1.21,2.12.44,3.63.74,4.51.88,1.46.44,2.64.99,3.52,1.65.88.66,1.32,1.8,1.32,3.41v14.74c0,1.32-.33,2.42-.99,3.3s-1.8,1.32-3.41,1.32h-.44c-1.91-.14-4.22-.33-6.93-.55-2.72-.22-5.61-.4-8.69-.55-3.08-.14-6.24-.29-9.46-.44-3.23-.14-6.31-.22-9.24-.22-4.7,0-8.99.7-12.87,2.09-3.89,1.4-7.23,3.67-10.01,6.82-2.79,3.16-4.99,7.37-6.6,12.65-1.62,5.28-2.42,11.81-2.42,19.58v32.34c0,7.63.8,14.08,2.42,19.36,1.61,5.28,3.81,9.54,6.6,12.76,2.78,3.23,6.12,5.54,10.01,6.93,3.88,1.4,8.17,2.09,12.87,2.09,2.93,0,6.01-.07,9.24-.22,3.22-.14,6.38-.29,9.46-.44,3.08-.14,5.97-.33,8.69-.55,2.71-.22,5.02-.4,6.93-.55h.44c1.61,0,2.75.44,3.41,1.32.66.88.99,1.98.99,3.3v14.74c0,1.62-.44,2.75-1.32,3.41Z"/>
    <path d="m2027.55,187.8c0,7.92-1.14,15.22-3.41,21.89-2.28,6.68-5.61,12.43-10.01,17.27-4.4,4.84-9.87,8.66-16.39,11.44-6.53,2.78-14.12,4.18-22.77,4.18s-16.25-1.4-22.77-4.18c-6.53-2.78-11.99-6.6-16.39-11.44-4.4-4.84-7.74-10.59-10.01-17.27-2.28-6.67-3.41-13.97-3.41-21.89v-17.82c0-7.92,1.13-15.21,3.41-21.89,2.27-6.67,5.61-12.43,10.01-17.27,4.4-4.84,9.86-8.65,16.39-11.44,6.52-2.78,14.11-4.18,22.77-4.18s16.24,1.4,22.77,4.18c6.52,2.79,11.99,6.6,16.39,11.44,4.4,4.84,7.73,10.6,10.01,17.27,2.27,6.68,3.41,13.97,3.41,21.89v17.82Zm-29.04-17.82c0-9.09-1.98-16.31-5.94-21.67-3.96-5.35-9.83-8.03-17.6-8.03s-13.64,2.68-17.6,8.03c-3.96,5.36-5.94,12.58-5.94,21.67v17.82c0,9.1,1.98,16.32,5.94,21.67,3.96,5.36,9.82,8.03,17.6,8.03s13.64-2.67,17.6-8.03c3.96-5.35,5.94-12.57,5.94-21.67v-17.82Z"/>
    <path d="m2144.14,230.92c0,1.62-.37,2.83-1.1,3.63-.74.81-2.35,1.58-4.84,2.31-6.9,1.76-14.23,3.16-22,4.18-7.78,1.02-15.18,1.54-22.22,1.54-17.75,0-30.95-4.87-39.6-14.63-8.66-9.75-12.98-23.28-12.98-40.59v-16.94c0-17.3,4.32-30.83,12.98-40.59,8.65-9.75,21.85-14.63,39.6-14.63,2.64,0,5.79.11,9.46.33,3.66.22,7.55.63,11.66,1.21v-38.94c0-1.17.44-2.2,1.32-3.08s1.9-1.32,3.08-1.32h20.24c1.17,0,2.2.44,3.08,1.32s1.32,1.91,1.32,3.08v153.12Zm-29.04-90.21c-3.08-.44-6.71-.8-10.89-1.09-4.18-.29-7.59-.44-10.23-.44-4.7,0-8.58.8-11.66,2.41-3.08,1.61-5.5,3.79-7.26,6.57-1.76,2.77-2.97,6.05-3.63,9.84-.66,3.79-.99,7.95-.99,12.47v16.84c0,4.52.33,8.68.99,12.47.66,3.8,1.87,7.08,3.63,9.85,1.76,2.77,4.18,4.96,7.26,6.56,3.08,1.61,6.96,2.41,11.66,2.41,3.96,0,7.95-.14,11.99-.44,4.03-.29,7.07-.66,9.13-1.1v-76.35Z"/>
    <path d="m2267.34,183.4c0,3.67-1.47,5.5-4.4,5.5h-71.72v.66c0,3.23.36,6.49,1.1,9.79.73,3.3,2.09,6.31,4.07,9.02,1.98,2.72,4.69,4.92,8.14,6.6,3.44,1.69,7.81,2.53,13.09,2.53,8.06,0,15.65-.25,22.77-.77,7.11-.51,13.01-.99,17.71-1.43h.66c1.17,0,2.12.26,2.86.77.73.52,1.1,1.36,1.1,2.53v14.52c0,1.76-.26,3.08-.77,3.96-.52.88-1.8,1.47-3.85,1.76-3.52.74-6.82,1.32-9.9,1.76-3.08.44-6.2.8-9.35,1.1-3.16.29-6.6.51-10.34.66-3.74.14-8.11.22-13.09.22-5.58,0-11.47-.85-17.7-2.53-6.23-1.68-11.96-4.62-17.2-8.8-5.24-4.18-9.57-9.82-12.99-16.94-3.42-7.11-5.13-16.09-5.13-26.95v-16.28c0-8.5,1.17-16.2,3.51-23.1,2.34-6.89,5.74-12.76,10.21-17.6,4.46-4.84,9.99-8.58,16.57-11.22,6.59-2.64,14.05-3.96,22.4-3.96s15.99,1.36,22.5,4.07c6.51,2.72,11.96,6.57,16.36,11.55,4.39,4.99,7.72,10.89,9.99,17.71s3.4,14.34,3.4,22.55v12.32Zm-29.04-16.06c0-8.65-2.14-15.32-6.41-20.02-4.28-4.69-9.88-7.04-16.8-7.04s-12.6,2.31-17.02,6.93c-4.42,4.62-6.63,11.33-6.63,20.13v.88h46.86v-.88Z"/>
  </g>
</svg>