<svg width="109" height="29" viewBox="0 0 109 29" fill="none" xmlns="http://www.w3.org/2000/svg">
<path d="M0 13.9199C0 7.35774 0 4.07668 2.00104 2.03878C4.00123 0 7.22157 0 13.6622 0H14.8011C21.2417 0 24.4621 0 26.4631 2.03878C28.4642 4.07755 28.4642 7.35861 28.4642 13.9207V15.081C28.4642 21.6431 28.4642 24.9242 26.4631 26.963C24.4621 29.0017 21.2417 29.0017 14.8011 29.0017H13.6622C7.22157 29.0017 4.00123 29.0017 2.00019 26.963C0 24.9233 0 21.6423 0 15.0801V13.9199Z" fill="#005DE0"/>
<path d="M11.3523 19.5266L8.50529 14.499L11.3523 9.47144H15.4991L17.864 5.29443H8.98735L3.77539 14.499L8.98735 23.7027H17.864L15.4991 19.5257H11.3523V19.5266Z" fill="white"/>
<path opacity="0.5" d="M24.6229 14.5044L20.1096 22.4755L17.7446 18.2985L19.893 14.5044L17.7378 10.6991L20.1027 6.52295L24.6229 14.5044Z" fill="white"/>
<path d="M41.1878 12.0049C41.0919 12.1026 40.9789 12.1524 40.8513 12.1524C40.1937 12.1524 39.6046 12.23 39.084 12.3853C38.5626 12.5406 38.0462 12.7569 37.5334 13.0343V22.8836C37.5334 23.0145 37.4854 23.1331 37.3887 23.2387C37.2928 23.3451 37.1797 23.3983 37.0521 23.3983H34.8396C34.7112 23.3983 34.599 23.3451 34.5031 23.2387C34.4072 23.1323 34.3584 23.0145 34.3584 22.8836V10.07C34.3584 9.9391 34.4063 9.82482 34.5031 9.72711C34.5999 9.62941 34.7112 9.57968 34.8396 9.57968H36.9314C37.0599 9.57968 37.172 9.62853 37.2679 9.72711C37.3638 9.82569 37.4126 9.93998 37.4126 10.07V10.5847C38.0051 10.111 38.6071 9.7969 39.2159 9.64162C39.8247 9.48633 40.3701 9.40869 40.8513 9.40869C40.9797 9.40869 41.0919 9.45755 41.1878 9.55613C41.2837 9.65383 41.3325 9.76899 41.3325 9.89898V11.6629C41.3325 11.7938 41.2846 11.9081 41.1878 12.0058V12.0049Z" fill="white"/>
<path d="M53.9809 17.0038C53.9809 17.4121 53.8208 17.6162 53.4997 17.6162H45.6599V17.6895C45.6599 18.0489 45.7001 18.4119 45.7798 18.78C45.8594 19.1473 46.0084 19.4823 46.225 19.7841C46.4416 20.0869 46.7379 20.332 47.1147 20.5196C47.4914 20.7071 47.9683 20.8013 48.5454 20.8013C49.4265 20.8013 50.2562 20.7734 51.0345 20.7158C51.812 20.6591 52.4568 20.6059 52.9705 20.5562H53.0424C53.1709 20.5562 53.2745 20.585 53.355 20.6417C53.4346 20.6993 53.4748 20.7926 53.4748 20.9235V22.5409C53.4748 22.7372 53.4466 22.8837 53.3909 22.9823C53.3344 23.08 53.194 23.1455 52.9705 23.1786C52.5861 23.2606 52.2247 23.326 51.8882 23.3749C51.5517 23.4237 51.2109 23.4647 50.8659 23.497C50.5208 23.5293 50.144 23.5537 49.7356 23.5703C49.3272 23.586 48.8494 23.5947 48.3048 23.5947C47.6952 23.5947 47.0504 23.5005 46.3706 23.313C45.6899 23.1254 45.0631 22.7982 44.4903 22.3333C43.9174 21.8683 43.4439 21.2393 43.0706 20.4472C42.6964 19.655 42.5098 18.6544 42.5098 17.4461V15.6333C42.5098 14.6859 42.6373 13.8283 42.8934 13.0606C43.1494 12.2929 43.521 11.6395 44.009 11.1004C44.4971 10.5612 45.1008 10.1451 45.8209 9.8511C46.541 9.5571 47.3561 9.40967 48.2689 9.40967C49.1816 9.40967 50.0165 9.56059 50.728 9.86331C51.4395 10.166 52.0355 10.5944 52.5158 11.1492C52.9953 11.7049 53.3601 12.3618 53.6076 13.1217C53.8559 13.8815 53.9792 14.7182 53.9792 15.6333V17.0056L53.9809 17.0038ZM50.8068 15.2154C50.8068 14.2523 50.573 13.509 50.1064 12.9856C49.6389 12.463 49.0266 12.2013 48.2706 12.2013C47.5145 12.2013 46.8937 12.4587 46.41 12.9734C45.927 13.4881 45.6847 14.2349 45.6847 15.2154V15.3131H50.8068V15.2154Z" fill="white"/>
<path d="M67.4474 23.018C67.3515 23.0913 67.223 23.1524 67.0629 23.2021C66.967 23.2353 66.8018 23.2719 66.5697 23.312C66.3368 23.353 66.0526 23.394 65.716 23.4342C65.3795 23.4743 65.0028 23.5118 64.5858 23.5441C64.1688 23.5764 63.7278 23.5929 63.2629 23.5929C62.5411 23.5929 61.7799 23.4865 60.9784 23.2745C60.177 23.0625 59.4466 22.6743 58.7856 22.1108C58.1254 21.5472 57.5757 20.7838 57.1382 19.8199C56.7006 18.8567 56.4814 17.6145 56.4814 16.0956V12.4944C56.4814 10.959 56.6998 9.70536 57.1382 8.73352C57.5757 7.76168 58.1254 6.99833 58.7856 6.44262C59.4458 5.88778 60.177 5.50742 60.9784 5.30328C61.7799 5.09914 62.5411 4.99707 63.2629 4.99707C63.7278 4.99707 64.1688 5.01365 64.5858 5.04592C65.0028 5.07908 65.3795 5.11572 65.716 5.15585C66.0526 5.19685 66.3368 5.24134 66.5697 5.29019C66.8018 5.33905 66.9662 5.3722 67.0629 5.3879C67.223 5.43676 67.3515 5.49782 67.4474 5.57198C67.5433 5.64526 67.5921 5.77263 67.5921 5.95147V7.5933C67.5921 7.74074 67.5561 7.86287 67.4842 7.96058C67.4123 8.05829 67.2873 8.10801 67.1117 8.10801H67.0638C66.8549 8.09231 66.6031 8.07137 66.306 8.04695C66.0089 8.02252 65.6929 8.00246 65.3564 7.98588C65.0199 7.97018 64.6749 7.9536 64.3221 7.93703C63.9693 7.92132 63.6328 7.9126 63.3117 7.9126C62.7988 7.9126 62.3296 7.99024 61.9049 8.14553C61.4802 8.30081 61.1154 8.55381 60.8106 8.90538C60.5058 9.25695 60.2652 9.7263 60.0888 10.3143C59.9124 10.9023 59.8242 11.629 59.8242 12.4953V16.0965C59.8242 16.9462 59.9124 17.6642 60.0888 18.2522C60.2652 18.8402 60.5058 19.3139 60.8106 19.6733C61.1146 20.0327 61.4802 20.2901 61.9049 20.4454C62.3296 20.6006 62.7988 20.6783 63.3117 20.6783C63.6319 20.6783 63.9685 20.6704 64.3221 20.6539C64.6749 20.6382 65.0191 20.6216 65.3564 20.605C65.6929 20.5893 66.0097 20.5684 66.306 20.5439C66.6023 20.5195 66.8549 20.4994 67.0638 20.4829H67.1117C67.2881 20.4829 67.4123 20.5317 67.4842 20.6303C67.5561 20.728 67.5921 20.851 67.5921 20.9976V22.6394C67.5921 22.8191 67.5441 22.9456 67.4474 23.0189V23.018Z" fill="white"/>
<path d="M81.3458 17.493C81.3458 18.375 81.2216 19.1881 80.9733 19.9305C80.7242 20.6738 80.3603 21.315 79.8791 21.8541C79.3978 22.3932 78.801 22.8181 78.0878 23.1278C77.3745 23.4375 76.5448 23.5937 75.5987 23.5937C74.6525 23.5937 73.8228 23.4384 73.1096 23.1278C72.3963 22.8181 71.7987 22.3924 71.3183 21.8541C70.838 21.3158 70.4723 20.6746 70.224 19.9305C69.9749 19.1872 69.8516 18.375 69.8516 17.493V15.5083C69.8516 14.6264 69.9757 13.8142 70.224 13.0709C70.4723 12.3276 70.8371 11.6864 71.3183 11.1473C71.7995 10.6081 72.3963 10.1833 73.1096 9.87357C73.8228 9.56387 74.6525 9.40771 75.5987 9.40771C76.5448 9.40771 77.3737 9.563 78.0878 9.87357C78.801 10.1841 79.3987 10.609 79.8791 11.1473C80.3603 11.6864 80.7242 12.3276 80.9733 13.0709C81.2216 13.8142 81.3458 14.6264 81.3458 15.5083V17.493ZM78.1717 15.5083C78.1717 14.4955 77.9551 13.6912 77.5227 13.0953C77.0894 12.4995 76.4481 12.2011 75.5987 12.2011C74.7493 12.2011 74.108 12.4995 73.6747 13.0953C73.2414 13.692 73.0257 14.4964 73.0257 15.5083V17.493C73.0257 18.5059 73.2423 19.3102 73.6747 19.9061C74.108 20.5028 74.7484 20.8003 75.5987 20.8003C76.4489 20.8003 77.0894 20.5028 77.5227 19.9061C77.9559 19.3102 78.1717 18.5059 78.1717 17.493V15.5083Z" fill="white"/>
<path d="M94.8117 22.2957C94.8117 22.4754 94.7714 22.6107 94.6918 22.6996C94.6113 22.7895 94.4349 22.875 94.1626 22.957C93.4092 23.1533 92.6077 23.3086 91.7583 23.4228C90.9081 23.5371 90.0989 23.5947 89.3291 23.5947C87.3889 23.5947 85.9461 23.0521 85.0008 21.9651C84.0547 20.879 83.582 19.3723 83.582 17.4444V15.5583C83.582 13.6311 84.0547 12.1245 85.0008 11.0375C85.9461 9.9514 87.3898 9.4079 89.3291 9.4079C89.6177 9.4079 89.9619 9.42011 90.3635 9.44454C90.7642 9.46897 91.1889 9.51433 91.6376 9.57889V5.24224C91.6376 5.11138 91.6855 4.99709 91.7823 4.89939C91.879 4.80168 91.9904 4.75195 92.1188 4.75195H94.3313C94.4598 4.75195 94.5719 4.80081 94.6678 4.89939C94.7637 4.99797 94.8125 5.11225 94.8125 5.24224V22.2948L94.8117 22.2957ZM91.6376 12.2501C91.3011 12.2013 90.9038 12.1612 90.4474 12.128C89.9902 12.0957 89.6177 12.0792 89.3291 12.0792C88.8163 12.0792 88.3916 12.169 88.0551 12.347C87.7186 12.5258 87.454 12.7692 87.2613 13.078C87.0687 13.3869 86.9368 13.7524 86.8649 14.1746C86.7929 14.5969 86.757 15.0601 86.757 15.5635V17.4391C86.757 17.9425 86.7929 18.4057 86.8649 18.828C86.9368 19.2502 87.0695 19.6166 87.2613 19.9246C87.454 20.2334 87.7186 20.4768 88.0551 20.6556C88.3916 20.8345 88.8163 20.9235 89.3291 20.9235C89.7624 20.9235 90.1982 20.9077 90.6401 20.8746C91.081 20.8423 91.4132 20.8013 91.6376 20.7525V12.2493V12.2501Z" fill="white"/>
<path d="M109 17.0038C109 17.4121 108.84 17.6162 108.519 17.6162H100.679V17.6895C100.679 18.0489 100.719 18.4119 100.799 18.78C100.878 19.1473 101.027 19.4823 101.244 19.7841C101.461 20.0869 101.757 20.332 102.134 20.5196C102.51 20.7071 102.987 20.8013 103.564 20.8013C104.446 20.8013 105.275 20.7734 106.054 20.7158C106.831 20.6591 107.476 20.6059 107.99 20.5562H108.061C108.19 20.5562 108.294 20.585 108.374 20.6417C108.454 20.6993 108.494 20.7926 108.494 20.9235V22.5409C108.494 22.7372 108.466 22.8837 108.41 22.9823C108.353 23.08 108.213 23.1455 107.99 23.1786C107.605 23.2606 107.244 23.326 106.907 23.3749C106.571 23.4237 106.23 23.4647 105.885 23.497C105.54 23.5293 105.163 23.5537 104.755 23.5703C104.346 23.586 103.868 23.5947 103.324 23.5947C102.714 23.5947 102.069 23.5005 101.39 23.313C100.709 23.1254 100.082 22.7982 99.5093 22.3333C98.9365 21.8674 98.463 21.2393 98.0896 20.4472C97.7155 19.655 97.5288 18.6544 97.5288 17.4461V15.6333C97.5288 14.6859 97.6564 13.8283 97.9124 13.0606C98.1684 12.2929 98.54 11.6395 99.0281 11.1004C99.5162 10.5612 100.12 10.1451 100.84 9.8511C101.56 9.5571 102.375 9.40967 103.288 9.40967C104.201 9.40967 105.036 9.56059 105.747 9.86331C106.459 10.166 107.055 10.5944 107.535 11.1492C108.014 11.7049 108.379 12.3618 108.627 13.1217C108.875 13.8815 108.998 14.7182 108.998 15.6333V17.0056L109 17.0038ZM105.826 15.2154C105.826 14.2523 105.592 13.509 105.125 12.9856C104.658 12.463 104.046 12.2013 103.29 12.2013C102.534 12.2013 101.913 12.4587 101.429 12.9734C100.946 13.4881 100.704 14.2349 100.704 15.2154V15.3131H105.826V15.2154Z" fill="white"/>
</svg>
