<svg width="88" height="24" viewBox="0 0 88 24" fill="none" xmlns="http://www.w3.org/2000/svg">
<path d="M34.9722 8.73434C34.9722 8.81834 34.9482 8.89634 34.9002 8.96834C34.8522 9.04034 34.7862 9.07634 34.7022 9.07634H34.5582C34.1142 9.07634 33.7002 9.13634 33.3162 9.25634C32.9322 9.37634 32.5722 9.52634 32.2362 9.70634V16.7443C32.2362 16.8403 32.2002 16.9303 32.1282 17.0143C32.0562 17.0863 31.9722 17.1223 31.8762 17.1223H29.6982C29.6022 17.1223 29.5122 17.0863 29.4282 17.0143C29.3562 16.9303 29.3202 16.8403 29.3202 16.7443V7.16834C29.3202 7.07234 29.3562 6.98834 29.4282 6.91634C29.5002 6.84434 29.5842 6.80834 29.6802 6.80834H31.8222C31.9182 6.80834 32.0022 6.84434 32.0742 6.91634C32.1462 6.98834 32.1822 7.07234 32.1822 7.16834V7.52834C32.5182 7.25234 32.8962 7.04234 33.3162 6.89834C33.7482 6.74234 34.1802 6.66434 34.6122 6.66434C34.7082 6.66434 34.7922 6.70034 34.8642 6.77234C34.9362 6.84434 34.9722 6.92834 34.9722 7.02434V8.73434ZM44.9057 12.4423C44.9057 12.7303 44.7797 12.8743 44.5277 12.8743H38.7857V12.9103C38.7857 13.1623 38.8157 13.4083 38.8757 13.6483C38.9357 13.8883 39.0377 14.0983 39.1817 14.2783C39.3257 14.4583 39.5117 14.6023 39.7397 14.7103C39.9797 14.8183 40.2797 14.8723 40.6397 14.8723C40.9277 14.8723 41.2337 14.8663 41.5577 14.8543C41.8817 14.8423 42.1997 14.8303 42.5117 14.8183C42.8357 14.8063 43.1357 14.7943 43.4117 14.7823C43.6877 14.7583 43.9157 14.7343 44.0957 14.7103H44.1497C44.3777 14.7103 44.4917 14.8063 44.4917 14.9983V16.3663C44.4917 16.5103 44.4677 16.6183 44.4197 16.6903C44.3717 16.7623 44.2697 16.8163 44.1137 16.8523C43.5377 16.9963 42.9737 17.1043 42.4217 17.1763C41.8697 17.2483 41.2037 17.2843 40.4237 17.2843C39.8837 17.2843 39.3437 17.2063 38.8037 17.0503C38.2637 16.8943 37.7777 16.6363 37.3457 16.2763C36.9137 15.9163 36.5657 15.4423 36.3017 14.8543C36.0377 14.2543 35.9057 13.5223 35.9057 12.6583V11.3983C35.9057 10.6783 36.0077 10.0243 36.2117 9.43634C36.4157 8.84834 36.7097 8.35034 37.0937 7.94234C37.4897 7.53434 37.9697 7.22234 38.5337 7.00634C39.0977 6.77834 39.7397 6.66434 40.4597 6.66434C41.1917 6.66434 41.8337 6.78434 42.3857 7.02434C42.9497 7.26434 43.4177 7.59434 43.7897 8.01434C44.1617 8.43434 44.4377 8.93234 44.6177 9.50834C44.8097 10.0843 44.9057 10.7143 44.9057 11.3983V12.4423ZM42.0617 11.0023C42.0617 10.3303 41.9177 9.83234 41.6297 9.50834C41.3417 9.17234 40.9457 9.00434 40.4417 9.00434C39.9377 9.00434 39.5357 9.17234 39.2357 9.50834C38.9357 9.84434 38.7857 10.3423 38.7857 11.0023V11.0743H42.0617V11.0023ZM55.0729 16.5643C55.0729 16.6963 55.0369 16.7923 54.9649 16.8523C54.9049 16.9003 54.8089 16.9423 54.6769 16.9783C54.4849 17.0383 54.1489 17.1043 53.6689 17.1763C53.1889 17.2483 52.6309 17.2843 51.9949 17.2843C51.3109 17.2843 50.6449 17.1883 49.9969 16.9963C49.3609 16.8043 48.7969 16.4863 48.3049 16.0423C47.8129 15.5863 47.4169 14.9923 47.1169 14.2603C46.8169 13.5283 46.6669 12.6283 46.6669 11.5603V9.29234C46.6669 8.22434 46.8169 7.32434 47.1169 6.59234C47.4169 5.86034 47.8129 5.27234 48.3049 4.82834C48.7969 4.38434 49.3609 4.06634 49.9969 3.87434C50.6449 3.68234 51.3109 3.58634 51.9949 3.58634C52.6309 3.58634 53.1889 3.62234 53.6689 3.69434C54.1489 3.76634 54.4849 3.83234 54.6769 3.89234C54.8089 3.92834 54.9049 3.97034 54.9649 4.01834C55.0369 4.06634 55.0729 4.15634 55.0729 4.28834V6.03434C55.0729 6.27434 54.9589 6.39434 54.7309 6.39434H54.6769C54.3289 6.37034 53.9209 6.34034 53.4529 6.30434C52.9969 6.26834 52.5169 6.25034 52.0129 6.25034C51.7009 6.25034 51.4069 6.29834 51.1309 6.39434C50.8669 6.47834 50.6329 6.64034 50.4289 6.88034C50.2249 7.10834 50.0629 7.42034 49.9429 7.81634C49.8349 8.20034 49.7809 8.69234 49.7809 9.29234V11.5603C49.7809 12.1603 49.8349 12.6583 49.9429 13.0543C50.0629 13.4383 50.2249 13.7503 50.4289 13.9903C50.6329 14.2183 50.8669 14.3803 51.1309 14.4763C51.4069 14.5603 51.7009 14.6023 52.0129 14.6023C52.5169 14.6023 52.9969 14.5843 53.4529 14.5483C53.9209 14.5123 54.3289 14.4823 54.6769 14.4583H54.7309C54.9589 14.4583 55.0729 14.5783 55.0729 14.8183V16.5643ZM65.6127 12.6043C65.6127 13.3243 65.5107 13.9723 65.3067 14.5483C65.1147 15.1243 64.8267 15.6163 64.4427 16.0243C64.0707 16.4203 63.6027 16.7323 63.0387 16.9603C62.4867 17.1763 61.8447 17.2843 61.1127 17.2843C60.3807 17.2843 59.7327 17.1763 59.1687 16.9603C58.6167 16.7323 58.1487 16.4203 57.7647 16.0243C57.3807 15.6163 57.0867 15.1243 56.8827 14.5483C56.6907 13.9723 56.5947 13.3243 56.5947 12.6043V11.3443C56.5947 10.6243 56.6907 9.97634 56.8827 9.40034C57.0867 8.82434 57.3807 8.33834 57.7647 7.94234C58.1487 7.53434 58.6167 7.22234 59.1687 7.00634C59.7327 6.77834 60.3807 6.66434 61.1127 6.66434C61.8447 6.66434 62.4867 6.77834 63.0387 7.00634C63.6027 7.22234 64.0707 7.53434 64.4427 7.94234C64.8267 8.33834 65.1147 8.82434 65.3067 9.40034C65.5107 9.97634 65.6127 10.6243 65.6127 11.3443V12.6043ZM62.7147 11.3443C62.7147 9.88034 62.1807 9.14834 61.1127 9.14834C60.5847 9.14834 60.1827 9.33434 59.9067 9.70634C59.6307 10.0663 59.4927 10.6123 59.4927 11.3443V12.6043C59.4927 13.3363 59.6307 13.8883 59.9067 14.2603C60.1827 14.6323 60.5847 14.8183 61.1127 14.8183C62.1807 14.8183 62.7147 14.0803 62.7147 12.6043V11.3443ZM76.0683 16.2943C76.0683 16.4383 76.0323 16.5463 75.9603 16.6183C75.9003 16.6903 75.7503 16.7563 75.5103 16.8163C74.9943 16.9483 74.4003 17.0563 73.7283 17.1403C73.0563 17.2363 72.3723 17.2843 71.6763 17.2843C70.2123 17.2843 69.0903 16.8823 68.3103 16.0783C67.5423 15.2743 67.1583 14.1403 67.1583 12.6763V11.2723C67.1583 9.85634 67.5303 8.73434 68.2743 7.90634C69.0183 7.07834 70.1523 6.66434 71.6763 6.66434C71.8563 6.66434 72.0783 6.67634 72.3423 6.70034C72.6183 6.72434 72.8883 6.75434 73.1523 6.79034V3.67634C73.1523 3.58034 73.1883 3.49634 73.2603 3.42434C73.3323 3.35234 73.4163 3.31634 73.5123 3.31634H75.6903C75.7863 3.31634 75.8703 3.35234 75.9423 3.42434C76.0263 3.49634 76.0683 3.58034 76.0683 3.67634V16.2943ZM73.1523 9.16634C72.9363 9.14234 72.6903 9.12434 72.4143 9.11234C72.1383 9.08834 71.8923 9.07634 71.6763 9.07634C71.3523 9.07634 71.0883 9.13034 70.8843 9.23834C70.6803 9.34634 70.5183 9.50234 70.3983 9.70634C70.2783 9.89834 70.1943 10.1323 70.1463 10.4083C70.0983 10.6723 70.0743 10.9603 70.0743 11.2723V12.6763C70.0743 13.0003 70.0983 13.3003 70.1463 13.5763C70.1943 13.8403 70.2783 14.0743 70.3983 14.2783C70.5183 14.4703 70.6803 14.6203 70.8843 14.7283C71.0883 14.8363 71.3523 14.8903 71.6763 14.8903C71.9763 14.8903 72.2523 14.8783 72.5043 14.8543C72.7683 14.8303 72.9843 14.8063 73.1523 14.7823V9.16634ZM86.9526 12.4423C86.9526 12.7303 86.8266 12.8743 86.5746 12.8743H80.8326V12.9103C80.8326 13.1623 80.8626 13.4083 80.9226 13.6483C80.9826 13.8883 81.0846 14.0983 81.2286 14.2783C81.3726 14.4583 81.5586 14.6023 81.7866 14.7103C82.0266 14.8183 82.3266 14.8723 82.6866 14.8723C82.9746 14.8723 83.2806 14.8663 83.6046 14.8543C83.9286 14.8423 84.2466 14.8303 84.5586 14.8183C84.8826 14.8063 85.1826 14.7943 85.4586 14.7823C85.7346 14.7583 85.9626 14.7343 86.1426 14.7103H86.1966C86.4246 14.7103 86.5386 14.8063 86.5386 14.9983V16.3663C86.5386 16.5103 86.5146 16.6183 86.4666 16.6903C86.4186 16.7623 86.3166 16.8163 86.1606 16.8523C85.5846 16.9963 85.0206 17.1043 84.4686 17.1763C83.9166 17.2483 83.2506 17.2843 82.4706 17.2843C81.9306 17.2843 81.3906 17.2063 80.8506 17.0503C80.3106 16.8943 79.8246 16.6363 79.3926 16.2763C78.9606 15.9163 78.6126 15.4423 78.3486 14.8543C78.0846 14.2543 77.9526 13.5223 77.9526 12.6583V11.3983C77.9526 10.6783 78.0546 10.0243 78.2586 9.43634C78.4626 8.84834 78.7566 8.35034 79.1406 7.94234C79.5366 7.53434 80.0166 7.22234 80.5806 7.00634C81.1446 6.77834 81.7866 6.66434 82.5066 6.66434C83.2386 6.66434 83.8806 6.78434 84.4326 7.02434C84.9966 7.26434 85.4646 7.59434 85.8366 8.01434C86.2086 8.43434 86.4846 8.93234 86.6646 9.50834C86.8566 10.0843 86.9526 10.7143 86.9526 11.3983V12.4423ZM84.1086 11.0023C84.1086 10.3303 83.9646 9.83234 83.6766 9.50834C83.3886 9.17234 82.9926 9.00434 82.4886 9.00434C81.9846 9.00434 81.5826 9.17234 81.2826 9.50834C80.9826 9.84434 80.8326 10.3423 80.8326 11.0023V11.0743H84.1086V11.0023Z" fill="white"/>
<g clip-path="url(#clip0_1606_472)">
<path d="M11.9738 23.0678H11.094C8.54505 23.0678 6.70346 23.0678 5.23043 22.8698C4.4415 22.7637 3.79006 22.6019 3.23905 22.3752C2.63872 22.1283 2.13637 21.7977 1.7033 21.3645C1.27009 20.9314 0.93952 20.4289 0.69258 19.8287C0.465865 19.2776 0.304063 18.6263 0.198017 17.8373C0 16.3643 0 14.5226 0 11.9738V11.094C0 8.54505 0 6.70346 0.198017 5.23043C0.304063 4.4415 0.465865 3.79019 0.69258 3.23905C0.93952 2.63872 1.27009 2.13637 1.7033 1.7033C2.1365 1.27023 2.63885 0.93952 3.23905 0.69258C3.79019 0.465865 4.4415 0.304063 5.23043 0.198017C6.70346 0 8.54519 0 11.094 0H11.9738C14.5227 0 16.3643 0 17.8373 0.198017C18.6263 0.304063 19.2777 0.465865 19.8287 0.69258C20.4291 0.93952 20.9314 1.27009 21.3645 1.7033C21.7977 2.1365 22.1283 2.63885 22.3752 3.23905C22.6019 3.79019 22.7637 4.4415 22.8698 5.23043C23.0678 6.70346 23.0678 8.54505 23.0678 11.094V11.9738C23.0678 14.5227 23.0678 16.3643 22.8698 17.8373C22.7637 18.6263 22.6019 19.2777 22.3752 19.8287C22.1283 20.4291 21.7977 20.9314 21.3645 21.3645C20.9313 21.7975 20.4289 22.1283 19.8287 22.3752C19.2776 22.6019 18.6263 22.7637 17.8373 22.8698C16.3643 23.0678 14.5227 23.0678 11.9738 23.0678ZM11.094 1.07385C6.27189 1.07385 3.85142 1.07385 2.4627 2.46257C1.07399 3.85142 1.07399 6.27176 1.07399 11.0938V11.9736C1.07399 16.7957 1.07399 19.2162 2.4627 20.6049C3.85142 21.9936 6.27189 21.9936 11.094 21.9936H11.9738C16.7959 21.9936 19.2164 21.9936 20.6051 20.6049C21.9938 19.2162 21.9938 16.7957 21.9938 11.9736V11.0938C21.9938 6.27176 21.9938 3.85128 20.6051 2.46257C19.2162 1.07385 16.7959 1.07385 11.9738 1.07385H11.094Z" fill="white"/>
<path d="M9.20404 15.4976L6.89685 11.4986L9.20404 7.49955H12.5649L14.4815 4.17728H7.28728L3.06348 11.4986L7.28728 18.8198H14.4815L12.5649 15.4976H9.20404Z" fill="white"/>
<path d="M19.959 11.5031L16.3012 17.8433L14.3846 14.521L16.1256 11.5031L14.3794 8.47612L16.296 5.15384L19.959 11.5031Z" fill="white"/>
</g>
<defs>
<clipPath id="clip0_1606_472">
<rect width="23.0678" height="23.0678" fill="white"/>
</clipPath>
</defs>
</svg>
