<svg width="1364" height="332" viewBox="0 0 1364 332" fill="none" xmlns="http://www.w3.org/2000/svg">
<g clip-path="url(#clip0_2122_714)">
<path d="M0 159.56C0 84.34 0 46.73 23.37 23.37C46.73 0 84.34 0 159.56 0H172.86C248.08 0 285.69 0 309.06 23.37C332.43 46.74 332.43 84.35 332.43 159.57V172.87C332.43 248.09 332.43 285.7 309.06 309.07C285.69 332.44 248.08 332.44 172.86 332.44H159.56C84.34 332.44 46.73 332.44 23.36 309.07C0 285.69 0 248.08 0 172.86V159.56Z" fill="#005DE0"/>
<path d="M132.58 223.83L99.3298 166.2L132.58 108.57H181.01L208.63 60.6899H104.96L44.0898 166.2L104.96 271.7H208.63L181.01 223.82H132.58V223.83Z" fill="white"/>
<path opacity="0.5" d="M287.57 166.26L234.86 257.63L207.24 209.75L232.33 166.26L207.16 122.64L234.78 74.77L287.57 166.26Z" fill="white"/>
<path d="M554.043 125.865C554.043 138.828 551.686 149.728 546.972 158.567C542.455 167.405 536.268 174.574 528.412 180.073C520.752 185.376 511.816 189.206 501.603 191.563C491.39 193.723 480.587 194.803 469.196 194.803C465.268 194.803 460.75 194.705 455.644 194.509C450.537 194.116 446.315 193.821 442.976 193.625V270.517C442.976 272.089 442.387 273.464 441.208 274.642C440.226 275.82 438.95 276.41 437.378 276.41H407.918C406.346 276.41 404.971 275.82 403.793 274.642C402.615 273.464 402.025 272.089 402.025 270.517V67.8277C402.025 64.8816 402.811 62.8193 404.382 61.6409C406.15 60.2661 408.507 59.3822 411.453 58.9894C419.113 57.811 427.951 56.9272 437.967 56.338C447.984 55.5524 458.394 55.1595 469.196 55.1595C480.587 55.1595 491.39 56.2398 501.603 58.4002C511.816 60.5607 520.752 64.2924 528.412 69.5953C536.268 74.8982 542.455 81.9688 546.972 90.807C551.686 99.4488 554.043 110.251 554.043 123.214V125.865ZM513.387 123.214C513.387 110.84 509.655 102.1 502.192 96.9938C494.925 91.6909 483.926 89.0394 469.196 89.0394C467.625 89.0394 465.562 89.1376 463.009 89.334C460.652 89.334 458.197 89.4322 455.644 89.6286C453.091 89.6286 450.636 89.7268 448.279 89.9232C446.118 89.9232 444.351 90.0214 442.976 90.2178V160.334C444.154 160.334 445.922 160.433 448.279 160.629C450.832 160.629 453.385 160.727 455.939 160.924C458.688 160.924 461.241 161.022 463.598 161.218C466.152 161.218 468.017 161.218 469.196 161.218C485.105 161.218 496.398 158.272 503.076 152.38C509.95 146.488 513.387 137.65 513.387 125.865V123.214Z" fill="white"/>
<path d="M719.311 199.517C719.311 204.427 717.346 206.882 713.418 206.882H617.376V207.766C617.376 212.087 617.867 216.506 618.849 221.023C619.831 225.344 621.599 229.371 624.152 233.102C626.902 236.638 630.536 239.584 635.053 241.941C639.767 244.101 645.659 245.181 652.729 245.181C663.532 245.181 673.646 244.887 683.074 244.297C692.698 243.512 700.652 242.824 706.937 242.235H707.821C709.392 242.235 710.669 242.628 711.651 243.414C712.633 244.003 713.124 245.083 713.124 246.654V266.098C713.124 268.455 712.731 270.223 711.945 271.401C711.356 272.58 709.687 273.365 706.937 273.758C702.223 274.74 697.804 275.526 693.68 276.115C689.555 276.704 685.332 277.195 681.012 277.588C676.887 277.981 672.272 278.275 667.165 278.472C662.255 278.668 656.461 278.766 649.783 278.766C642.32 278.766 634.365 277.686 625.92 275.526C617.671 273.169 610.011 269.241 602.941 263.742C595.87 258.046 589.978 250.484 585.264 241.057C580.747 231.433 578.488 219.354 578.488 204.82V183.019C578.488 171.628 580.059 161.316 583.202 152.085C586.344 142.854 590.862 134.998 596.754 128.517C602.842 122.035 610.306 117.027 619.144 113.492C627.982 109.957 637.999 108.189 649.194 108.189C660.585 108.189 670.602 110.055 679.244 113.786C688.082 117.322 695.447 122.428 701.339 129.106C707.232 135.784 711.651 143.738 714.597 152.969C717.739 162.004 719.311 172.02 719.311 183.019V199.517ZM680.128 178.011C680.128 166.423 677.28 157.486 671.584 151.202C665.888 144.917 658.425 141.774 649.194 141.774C639.963 141.774 632.401 144.917 626.509 151.202C620.617 157.29 617.671 166.226 617.671 178.011V179.189H680.128V178.011Z" fill="white"/>
<path d="M914.7 273.758C914.7 275.526 913.227 276.41 910.281 276.41H870.803C867.661 276.41 865.402 275.329 864.027 273.169L796.562 172.708V270.517C796.562 272.089 795.973 273.464 794.794 274.642C793.616 275.82 792.241 276.41 790.67 276.41H761.504C759.933 276.41 758.558 275.82 757.379 274.642C756.201 273.464 755.612 272.089 755.612 270.517V63.4085C755.612 61.8373 756.201 60.5607 757.379 59.5787C758.558 58.4002 759.933 57.811 761.504 57.811H790.67C792.241 57.811 793.616 58.4002 794.794 59.5787C795.973 60.5607 796.562 61.8373 796.562 63.4085V157.094L868.741 60.1679C869.526 59.1859 870.41 58.5966 871.392 58.4002C872.571 58.0074 873.946 57.811 875.517 57.811H909.102C912.834 57.811 914.7 58.9894 914.7 61.3463C914.7 62.7211 914.012 64.2924 912.637 66.06L837.218 163.575L913.227 270.223C914.209 271.794 914.7 272.973 914.7 273.758Z" fill="white"/>
<path d="M1064.55 205.409C1064.55 216.015 1062.98 225.835 1059.84 234.87C1056.89 243.708 1052.47 251.368 1046.58 257.849C1040.69 264.331 1033.33 269.437 1024.49 273.169C1015.85 276.901 1005.73 278.766 994.142 278.766C982.554 278.766 972.341 276.901 963.503 273.169C954.861 269.437 947.594 264.331 941.702 257.849C935.81 251.368 931.293 243.708 928.15 234.87C925.204 225.835 923.731 216.015 923.731 205.409V181.546C923.731 170.94 925.204 161.218 928.15 152.38C931.293 143.345 935.81 135.587 941.702 129.106C947.594 122.625 954.861 117.518 963.503 113.786C972.341 110.055 982.554 108.189 994.142 108.189C1005.73 108.189 1015.85 110.055 1024.49 113.786C1033.33 117.518 1040.69 122.625 1046.58 129.106C1052.47 135.587 1056.89 143.345 1059.84 152.38C1062.98 161.218 1064.55 170.94 1064.55 181.546V205.409ZM1025.67 181.546C1025.67 169.369 1023.01 159.745 1017.71 152.675C1012.41 145.408 1004.55 141.774 994.142 141.774C983.733 141.774 975.877 145.408 970.574 152.675C965.271 159.745 962.619 169.369 962.619 181.546V205.409C962.619 217.586 965.271 227.308 970.574 234.575C975.877 241.646 983.733 245.181 994.142 245.181C1004.55 245.181 1012.41 241.646 1017.71 234.575C1023.01 227.308 1025.67 217.586 1025.67 205.409V181.546Z" fill="white"/>
<path d="M1116.31 276.41V311.173C1116.31 312.745 1115.72 314.119 1114.54 315.298C1113.37 316.476 1111.99 317.065 1110.42 317.065H1083.32C1081.74 317.065 1080.37 316.476 1079.19 315.298C1078.01 314.119 1077.42 312.745 1077.42 311.173V250.19C1077.42 248.618 1078.01 247.244 1079.19 246.065C1080.37 244.887 1081.74 244.297 1083.32 244.297H1103.35L1131.63 138.239C1133.4 131.365 1135.95 125.964 1139.29 122.035C1142.63 118.107 1146.17 115.161 1149.9 113.197C1153.83 111.037 1157.75 109.662 1161.68 109.073C1165.81 108.483 1169.44 108.189 1172.58 108.189C1175.72 108.189 1179.26 108.483 1183.19 109.073C1187.12 109.662 1190.95 111.037 1194.68 113.197C1198.61 115.161 1202.24 118.107 1205.58 122.035C1208.92 125.964 1211.57 131.365 1213.53 138.239L1243.29 244.297H1260.38C1261.95 244.297 1263.32 244.887 1264.5 246.065C1265.68 247.244 1266.27 248.618 1266.27 250.19V311.173C1266.27 312.745 1265.68 314.119 1264.5 315.298C1263.32 316.476 1261.95 317.065 1260.38 317.065H1233.27C1231.7 317.065 1230.33 316.476 1229.15 315.298C1227.97 314.119 1227.38 312.745 1227.38 311.173V276.41H1116.31ZM1143.42 244.297H1203.52L1177.89 147.372C1177.1 144.229 1175.33 142.658 1172.58 142.658C1169.83 142.658 1168.06 144.229 1167.28 147.372L1143.42 244.297Z" fill="white"/>
</g>
<defs>
<clipPath id="clip0_2122_714">
<rect width="1364" height="332" fill="white"/>
</clipPath>
</defs>
</svg>
