<svg width="90" height="24" viewBox="0 0 90 24" fill="none" xmlns="http://www.w3.org/2000/svg">
<g clip-path="url(#clip0_2122_670)">
<mask id="mask0_2122_670" style="mask-type:luminance" maskUnits="userSpaceOnUse" x="0" y="0" width="24" height="24">
<path d="M23.0678 0H0V23.0678H23.0678V0Z" fill="white"/>
</mask>
<g mask="url(#mask0_2122_670)">
<path d="M11.9738 23.0678H11.094C8.54505 23.0678 6.70346 23.0678 5.23043 22.8698C4.4415 22.7637 3.79006 22.6019 3.23905 22.3752C2.63872 22.1283 2.13637 21.7977 1.7033 21.3645C1.27009 20.9314 0.93952 20.4289 0.69258 19.8287C0.465865 19.2776 0.304063 18.6263 0.198017 17.8373C0 16.3643 0 14.5226 0 11.9738V11.094C0 8.54505 0 6.70346 0.198017 5.23043C0.304063 4.4415 0.465865 3.79019 0.69258 3.23905C0.93952 2.63872 1.27009 2.13637 1.7033 1.7033C2.1365 1.27023 2.63885 0.93952 3.23905 0.69258C3.79019 0.465865 4.4415 0.304063 5.23043 0.198017C6.70346 0 8.54519 0 11.094 0H11.9738C14.5227 0 16.3643 0 17.8373 0.198017C18.6263 0.304063 19.2777 0.465865 19.8287 0.69258C20.4291 0.93952 20.9314 1.27009 21.3645 1.7033C21.7977 2.1365 22.1283 2.63885 22.3752 3.23905C22.6019 3.79019 22.7637 4.4415 22.8698 5.23043C23.0678 6.70346 23.0678 8.54505 23.0678 11.094V11.9738C23.0678 14.5227 23.0678 16.3643 22.8698 17.8373C22.7637 18.6263 22.6019 19.2777 22.3752 19.8287C22.1283 20.4291 21.7977 20.9314 21.3645 21.3645C20.9313 21.7975 20.4289 22.1283 19.8287 22.3752C19.2776 22.6019 18.6263 22.7637 17.8373 22.8698C16.3643 23.0678 14.5227 23.0678 11.9738 23.0678ZM11.094 1.07385C6.27189 1.07385 3.85142 1.07385 2.4627 2.46257C1.07399 3.85142 1.07399 6.27176 1.07399 11.0938V11.9736C1.07399 16.7957 1.07399 19.2162 2.4627 20.6049C3.85142 21.9936 6.27189 21.9936 11.094 21.9936H11.9738C16.7959 21.9936 19.2164 21.9936 20.6051 20.6049C21.9938 19.2162 21.9938 16.7957 21.9938 11.9736V11.0938C21.9938 6.27176 21.9938 3.85128 20.6051 2.46257C19.2162 1.07385 16.7959 1.07385 11.9738 1.07385H11.094Z" fill="white"/>
<path d="M9.20404 15.4976L6.89685 11.4986L9.20404 7.49952H12.5649L14.4815 4.17725H7.28728L3.06348 11.4986L7.28728 18.8198H14.4815L12.5649 15.4976H9.20404Z" fill="white"/>
<path d="M19.959 11.5031L16.3012 17.8433L14.3846 14.521L16.1256 11.5031L14.3794 8.47609L16.296 5.15381L19.959 11.5031Z" fill="white"/>
</g>
<path d="M39.9672 8.11172C39.9672 9.01959 39.8022 9.78304 39.472 10.402C39.1556 11.021 38.7223 11.5231 38.1721 11.9083C37.6356 12.2797 37.0097 12.5479 36.2944 12.713C35.5792 12.8643 34.8226 12.94 34.0248 12.94C33.7496 12.94 33.4333 12.9331 33.0756 12.9193C32.718 12.8918 32.4222 12.8712 32.1884 12.8574V18.2428C32.1884 18.3528 32.1471 18.4491 32.0646 18.5317C31.9958 18.6142 31.9064 18.6555 31.7963 18.6555H29.733C29.6229 18.6555 29.5266 18.6142 29.4441 18.5317C29.3616 18.4491 29.3203 18.3528 29.3203 18.2428V4.04691C29.3203 3.84058 29.3753 3.69614 29.4854 3.61361C29.6092 3.51732 29.7743 3.45542 29.9806 3.4279C30.5171 3.34537 31.1361 3.28347 31.8376 3.2422C32.5391 3.18718 33.2682 3.15967 34.0248 3.15967C34.8226 3.15967 35.5792 3.23532 36.2944 3.38664C37.0097 3.53795 37.6356 3.79931 38.1721 4.17071C38.7223 4.54212 39.1556 5.03732 39.472 5.65633C39.8022 6.26158 39.9672 7.01814 39.9672 7.92602V8.11172ZM37.1198 7.92602C37.1198 7.05941 36.8584 6.44728 36.3357 6.08963C35.8268 5.71823 35.0564 5.53253 34.0248 5.53253C33.9147 5.53253 33.7703 5.5394 33.5915 5.55316C33.4264 5.55316 33.2544 5.56004 33.0756 5.57379C32.8968 5.57379 32.7248 5.58067 32.5598 5.59443C32.4085 5.59443 32.2847 5.6013 32.1884 5.61506V10.5258C32.2709 10.5258 32.3947 10.5327 32.5598 10.5465C32.7386 10.5465 32.9174 10.5534 33.0963 10.5671C33.2888 10.5671 33.4677 10.574 33.6327 10.5877C33.8115 10.5877 33.9422 10.5877 34.0248 10.5877C35.139 10.5877 35.9299 10.3814 36.3976 9.96874C36.8791 9.55607 37.1198 8.93706 37.1198 8.11172V7.92602Z" fill="white"/>
<path d="M51.5422 13.2701C51.5422 13.614 51.4046 13.7859 51.1295 13.7859H44.4029V13.8478C44.4029 14.1505 44.4373 14.46 44.5061 14.7764C44.5749 15.079 44.6987 15.361 44.8775 15.6223C45.0701 15.8699 45.3246 16.0763 45.641 16.2413C45.9711 16.3926 46.3838 16.4683 46.879 16.4683C47.6355 16.4683 48.344 16.4477 49.0042 16.4064C49.6783 16.3514 50.2354 16.3032 50.6755 16.262H50.7374C50.8475 16.262 50.9369 16.2895 51.0057 16.3445C51.0745 16.3858 51.1088 16.4614 51.1088 16.5715V17.9333C51.1088 18.0984 51.0813 18.2222 51.0263 18.3047C50.985 18.3872 50.8681 18.4422 50.6755 18.4698C50.3454 18.5385 50.0359 18.5936 49.747 18.6348C49.4582 18.6761 49.1624 18.7105 48.8598 18.738C48.5709 18.7655 48.2477 18.7861 47.89 18.7999C47.5461 18.8136 47.1403 18.8205 46.6726 18.8205C46.1499 18.8205 45.5928 18.7449 45.0013 18.5936C44.4236 18.4285 43.8871 18.1534 43.3919 17.7682C42.8967 17.3693 42.484 16.8397 42.1539 16.1794C41.8375 15.5054 41.6793 14.6594 41.6793 13.6415V12.1146C41.6793 11.3168 41.7894 10.5946 42.0095 9.9481C42.2295 9.30159 42.5459 8.75136 42.9586 8.29742C43.385 7.84348 43.9077 7.49271 44.5267 7.24511C45.1458 6.99751 45.8473 6.87371 46.6314 6.87371C47.4292 6.87371 48.1307 7.00438 48.736 7.26574C49.355 7.51335 49.8708 7.87099 50.2835 8.33869C50.6962 8.80638 51.0057 9.36349 51.212 10.01C51.4321 10.6428 51.5422 11.3443 51.5422 12.1146V13.2701ZM48.7979 11.7639C48.7979 10.9523 48.5984 10.3264 48.1995 9.8862C47.8006 9.44602 47.2779 9.22593 46.6314 9.22593C45.9849 9.22593 45.4553 9.44602 45.0426 9.8862C44.6299 10.3126 44.4236 10.9385 44.4236 11.7639V11.8464H48.7979V11.7639Z" fill="white"/>
<path d="M65.2267 18.4698C65.2267 18.5936 65.1235 18.6555 64.9172 18.6555H62.1523C61.9322 18.6555 61.774 18.5798 61.6777 18.4285L56.9527 11.3925V18.2428C56.9527 18.3528 56.9114 18.4491 56.8289 18.5317C56.7463 18.6142 56.65 18.6555 56.54 18.6555H54.4973C54.3872 18.6555 54.2909 18.6142 54.2084 18.5317C54.1259 18.4491 54.0846 18.3528 54.0846 18.2428V3.73741C54.0846 3.62736 54.1259 3.53795 54.2084 3.46917C54.2909 3.38664 54.3872 3.34537 54.4973 3.34537H56.54C56.65 3.34537 56.7463 3.38664 56.8289 3.46917C56.9114 3.53795 56.9527 3.62736 56.9527 3.73741V10.2989L62.0079 3.51044C62.0629 3.44166 62.1248 3.40039 62.1936 3.38664C62.2761 3.35913 62.3724 3.34537 62.4824 3.34537H64.8347C65.096 3.34537 65.2267 3.4279 65.2267 3.59297C65.2267 3.68926 65.1786 3.79931 65.0823 3.92311L59.8001 10.7528L65.1235 18.2222C65.1923 18.3322 65.2267 18.4147 65.2267 18.4698Z" fill="white"/>
<path d="M75.7221 13.6828C75.7221 14.4256 75.612 15.1134 75.3919 15.7461C75.1856 16.3651 74.8761 16.9016 74.4634 17.3555C74.0508 17.8095 73.5349 18.1671 72.9159 18.4285C72.3107 18.6898 71.6023 18.8205 70.7907 18.8205C69.9791 18.8205 69.2638 18.6898 68.6448 18.4285C68.0395 18.1671 67.5306 17.8095 67.1179 17.3555C66.7052 16.9016 66.3888 16.3651 66.1688 15.7461C65.9624 15.1134 65.8593 14.4256 65.8593 13.6828V12.0115C65.8593 11.2686 65.9624 10.5877 66.1688 9.96874C66.3888 9.33597 66.7052 8.79263 67.1179 8.33869C67.5306 7.88475 68.0395 7.5271 68.6448 7.26574C69.2638 7.00438 69.9791 6.87371 70.7907 6.87371C71.6023 6.87371 72.3107 7.00438 72.9159 7.26574C73.5349 7.5271 74.0508 7.88475 74.4634 8.33869C74.8761 8.79263 75.1856 9.33597 75.3919 9.96874C75.612 10.5877 75.7221 11.2686 75.7221 12.0115V13.6828ZM72.9985 12.0115C72.9985 11.1586 72.8128 10.4846 72.4414 9.98937C72.0699 9.48041 71.5197 9.22593 70.7907 9.22593C70.0616 9.22593 69.5114 9.48041 69.14 9.98937C68.7686 10.4846 68.5829 11.1586 68.5829 12.0115V13.6828C68.5829 14.5356 68.7686 15.2165 69.14 15.7255C69.5114 16.2207 70.0616 16.4683 70.7907 16.4683C71.5197 16.4683 72.0699 16.2207 72.4414 15.7255C72.8128 15.2165 72.9985 14.5356 72.9985 13.6828V12.0115Z" fill="white"/>
<path d="M79.3471 18.6555V21.0902C79.3471 21.2003 79.3059 21.2966 79.2233 21.3791C79.1408 21.4616 79.0445 21.5029 78.9345 21.5029H77.0362C76.9261 21.5029 76.8298 21.4616 76.7473 21.3791C76.6648 21.2966 76.6235 21.2003 76.6235 21.0902V16.8191C76.6235 16.709 76.6648 16.6127 76.7473 16.5302C76.8298 16.4477 76.9261 16.4064 77.0362 16.4064H78.4393L80.4201 8.97833C80.5439 8.49688 80.7227 8.1186 80.9566 7.84348C81.1904 7.56837 81.438 7.36203 81.6994 7.22448C81.9745 7.07316 82.2496 6.97687 82.5247 6.93561C82.8136 6.89434 83.0681 6.87371 83.2881 6.87371C83.5082 6.87371 83.7558 6.89434 84.031 6.93561C84.3061 6.97687 84.5743 7.07316 84.8357 7.22448C85.1108 7.36203 85.3653 7.56837 85.5991 7.84348C85.8329 8.1186 86.0186 8.49688 86.1562 8.97833L88.2402 16.4064H89.4369C89.547 16.4064 89.6433 16.4477 89.7258 16.5302C89.8083 16.6127 89.8496 16.709 89.8496 16.8191V21.0902C89.8496 21.2003 89.8083 21.2966 89.7258 21.3791C89.6433 21.4616 89.547 21.5029 89.4369 21.5029H87.5387C87.4286 21.5029 87.3323 21.4616 87.2498 21.3791C87.1672 21.2966 87.126 21.2003 87.126 21.0902V18.6555H79.3471ZM81.2454 16.4064H85.4547L83.6595 9.61797C83.6045 9.39788 83.4807 9.28783 83.2881 9.28783C83.0956 9.28783 82.9718 9.39788 82.9167 9.61797L81.2454 16.4064Z" fill="white"/>
</g>
<defs>
<clipPath id="clip0_2122_670">
<rect width="90" height="24" fill="white"/>
</clipPath>
</defs>
</svg>
