<?xml version="1.0" encoding="UTF-8"?>
<svg xmlns="http://www.w3.org/2000/svg" viewBox="0 0 1159.01 244.33">
  <g>
    <path fill="currentColor" d="m109.61.39c-.8.2-4.9.9-9,1.5-22.8,3.7-46.9,16.2-63.9,33C19.51,51.99,8.61,71.49,2.51,95.89c-3.1,12.7-3.4,37.9-.5,51,5.4,25,16.5,45.3,34.5,63,16.9,16.6,36.6,27.2,61.1,32.6,11.5,2.6,37.7,2.4,49.5-.3,25.5-6,46.1-17.6,63.3-35.7,16.5-17.4,28.3-41.2,32.3-65.5,1.9-11.6,1.3-40.1-.9-40.1-.4,0-6.4,4.2-13.3,9.4l-12.6,9.3-.6,9.2c-3,41.5-31.2,74.5-72.5,84.8-9.2,2.3-32.2,2.3-41.4,0-37.1-9.2-63.5-36.3-71.3-73-2-9.1-1.9-27.8.1-37.5,6.3-30.5,28.7-56.6,58.4-68.1,11.8-4.6,23.5-6.4,37-5.8,14.7.7,24.7,3.3,38,9.9,5.8,2.9,10.8,5.3,11.3,5.3.4,0,5.9-3.8,12.3-8.5l11.6-8.5-3.9-3.2c-12.5-10.6-36.5-20.4-56.8-23.3-6.3-.9-24.8-1.2-28.5-.5Z"/>
    <path fill="currentColor" d="m383.71,47.99c-9.2,1.2-19.4,4.4-28.6,9.2-11.6,6-23.7,18.2-29.3,29.7-5.7,11.6-8.2,21.9-8.2,34.2,0,23.2,8,42.4,23.4,56.5,16.1,14.7,35.7,21.2,59.9,20,12.9-.6,23.1-3.2,32.7-8.3,6.5-3.4,18-11.9,18-13.3,0-.4-4.5-4-10-8l-10.1-7.3-8.2,4c-9.6,4.7-15.9,6.2-26.5,6.2-25.7,0-44.8-16.2-48.4-41-4.8-32.8,22-59.6,55.1-55.2,5.7.8,10.5,2.2,15,4.4,3.6,1.8,7.1,3.2,7.6,3.2.6-.1,5.9-3.7,11.8-8l10.8-7.9-3.3-2.7c-10-8.2-24-13.9-38.9-15.8-9.4-1.1-13.5-1.1-22.8.1Z"/>
    <path fill="currentColor" d="m170.51,82.89c-26.1,19.2-47.9,35-48.6,35s-10.4-5.8-21.7-12.9c-11.2-7.1-21.4-13.4-22.5-14.1-2.1-1.1-2.1-1-2.1,16.7v17.8l22.2,14c12.2,7.6,22.9,13.9,23.8,13.9,1.2,0,31.4-21.9,104.8-76.1l7.2-5.4-2.1-4.2c-3.1-6.1-12-19.7-12.8-19.7-.4,0-22.1,15.7-48.2,35Z"/>
    <path fill="currentColor" d="m478.61,122.39v73.5h39c44,0,49.3-.6,61.7-6.6,12.6-6.1,20.4-15.9,23.2-29.2,4.2-20.1-3.7-38.4-20.2-46.9-10.5-5.3-17.7-6.3-45.9-6.3h-25.8v-33h61.2l16.4-12.1c9-6.6,16.4-12.2,16.4-12.5,0-.2-28.3-.4-63-.4h-63v73.5Zm83.5,12c8.6,4.3,10,6.8,10,17,0,9.6-1.4,12.5-8.1,16.2-5.7,3.2-14.6,4.3-35.1,4.3h-18.3v-41.2l22.8.4,22.7.3,6,3Z"/>
    <path fill="currentColor" d="m633.31,49.59c-.4.3-.7,33.4-.7,73.5v72.8h112v-24h-80v-38h68v-24h-68v-36h46.2l15.1-11.2c8.4-6.1,15.9-11.7,16.7-12.5,1.2-1.1-7.8-1.3-53.6-1.3-30.3,0-55.4.3-55.7.7Z"/>
    <path fill="currentColor" d="m773.61,122.39v73.5h32v-41h15.8c32.9,0,49.5-4.9,62.6-18.5,10.8-11.4,15.2-30.6,11.1-48.4-4.9-20.6-22.7-34.4-48.8-38-4.3-.6-22.4-1.1-40.3-1.1h-32.4v73.5Zm72.4-47.1c7,2.1,12.1,5.9,15.3,11.3,2.6,4.4,2.8,5.6,2.8,15.3,0,11.6-.9,14.2-6.7,20.1-6.5,6.5-10,7.3-32,7.7l-19.8.4v-56.2h17.8c12.6,0,19.3.4,22.6,1.4Z"/>
    <path fill="currentColor" d="m970.61,122.39v73.5h26V48.89h-26v73.5Z"/>
    <path fill="currentColor" d="m1028.61,122.49v73.6l34.8-.4c33.7-.4,35-.5,44.5-3.1,13.6-3.6,22.5-8.6,31.8-17.7,6.1-6,8.4-9.2,11.7-16,6.3-13.3,7.6-19.9,7.6-38.5.1-18-1.6-26.5-7.7-38-4.7-8.8-15.5-19.2-24.8-23.8-15.7-7.7-30.1-9.7-70.5-9.7h-27.4v73.6Zm69.9-47.1c17,4.1,27.4,13.9,31.6,30.2,1.9,7.3,2,26,.1,33-2.2,8.3-5.6,14.4-11.1,19.9-10.1,10.1-21.8,13.4-48.1,13.4h-16.4v-98h18.8c13.1,0,20.6.5,25.1,1.5Z"/>
  </g>
</svg>