<?xml version="1.0" encoding="UTF-8"?>
<svg id="_Слой_2" data-name="Слой 2" xmlns="http://www.w3.org/2000/svg" viewBox="0 0 336.52 79.81">
  <defs>
    <style>
      .cls-1 {
        fill-rule: evenodd;
      }
    </style>
  </defs>
  <g id="_Слой_1-2" data-name="Слой 1">
    <g>
      <path class="cls-1" d="m29.14,17.5h-4.64c-8.44,0-12.88,4.28-12.88,10.6,0,7.18,3.07,10.5,9.4,14.78l5.2,3.5-15.03,22.45H0l13.47-20.08C5.69,43.2,1.34,37.83,1.34,28.67c0-11.46,7.95-19.2,23.04-19.2h15.02v59.37h-10.31V17.5h.03Zm52.76,8.38v42.96h-10.15v-17.93h-13.58v17.93h-10.15V25.87h10.15v17.01h13.58v-17.01h10.15Zm45.86,52.76h-9.41v-9.83h-22.81v9.83h-9.4v-17.84h3.18c3.57-7.18,4.28-20.76,4.28-31.26v-3.68h29.63v34.93h4.53v17.84h0Zm-14.68-44.73h-10.75v1.27c0,7.42-.77,19.13-3.61,25.64h14.36v-26.91h0Zm37.48,35.75c-12.97,0-20.33-7.25-20.33-22.2,0-12.98,5.91-22.45,18.28-22.45,10.15,0,16.72,5.65,16.72,20.58v5.37h-24.5c.42,7.18,3.25,10.68,10.68,10.68,4.95,0,10.25-1.87,13.4-4.03v8.31c-2.97,2.05-7.74,3.75-14.25,3.75h0Zm-9.83-26.2h14.18v-.84c0-5.37-1.55-9.54-6.58-9.54-4.84-.04-7.31,3.56-7.6,10.39h0Zm41.51,4.28v21.11h-10.18V25.87h10.18v19.8l14.37-19.8h10.26l-14.36,19.8,16.3,23.13h-11.54l-15.03-21.07h0Zm25.99-.35h0c0,14.36,6.58,22.28,20.17,22.31,4.7,0,8.03-.85,10.5-2.65v-8.27c-2.55,1.8-5.62,2.9-9.9,2.9-7.25,0-10.26-5.65-10.26-14.53,0-9.34,3.68-14.11,10.33-14.11,3.92,0,7.78,1.38,9.83,2.66v-8.63c-2.12-1.2-5.89-2.05-10.93-2.05-12.99,0-19.74,9.3-19.74,22.38Z"/>
      <path class="cls-1" d="m296.61,79.81c31.93,0,39.9-7.97,39.9-39.9S328.55,0,296.61,0s-39.9,7.97-39.9,39.9,7.97,39.9,39.9,39.9h0Zm-13.62-63.85v47.88h-8.32V15.96h8.32Zm18.72,0c3.16,0,6.09.4,8.78,1.26,2.7.8,5,2.18,6.95,4.02,1.95,1.84,3.5,4.31,4.59,7.29,1.15,2.99,1.67,6.72,1.67,11.14,0,3.9-.57,7.35-1.67,10.39-1.15,2.98-2.7,5.51-4.71,7.58-2.01,2.07-4.42,3.62-7.18,4.65-2.76,1.03-5.86,1.61-9.13,1.61h-10.5V15.96h11.19Zm-1.38,41.4v-.06h-1.49V22.39h2.18c2.13,0,4.08.29,5.8.86,1.78.57,3.27,1.55,4.54,2.87,1.26,1.32,2.24,3.1,2.93,5.28.69,2.18,1.03,4.88,1.03,8.09,0,2.98-.4,5.57-1.09,7.81-.75,2.24-1.72,4.08-3.04,5.57-1.32,1.44-2.87,2.58-4.71,3.33-1.84.75-3.91,1.15-6.15,1.15Z"/>
    </g>
  </g>
</svg>