<?xml version="1.0" encoding="utf-8"?>
<!-- Generator: Adobe Illustrator 27.2.0, SVG Export Plug-In . SVG Version: 6.00 Build 0)  -->
<svg version="1.1" xmlns="http://www.w3.org/2000/svg" xmlns:xlink="http://www.w3.org/1999/xlink" x="0px" y="0px"
	 viewBox="0 0 8670 2048" style="enable-background:new 0 0 8670 2048;" xml:space="preserve">
<style type="text/css">
	.st0{fill:#005DE0;}
	.st1{fill:#FFFFFF;}
	.st2{opacity:0.5;fill:#FFFFFF;}
</style>
<g id="Слой_1">
	<path class="st0" d="M0,983.1C0,519.7,0,288,144,144c144-144,375.7-144,839.1-144h81.9c463.4,0,695.1,0,839.1,144
		c144,144,144,375.7,144,839.1v81.9c0,463.4,0,695.1-144,839.1c-144,144-375.7,144-839.1,144H983c-463.4,0-695.1,0-839.1-144
		C0,1760.2,0,1528.5,0,1065V983.1z"/>
</g>
<g id="Слой_2">
	<path class="st1" d="M816.8,1379L612,1024l204.8-355h298.4l170.2-295H646.7l-375,650l375,650h638.7l-170.2-295H816.8z"/>
	<polygon class="st2" points="1771.7,1024.4 1446.9,1587.3 1276.7,1292.3 1431.3,1024.4 1276.3,755.7 1446.4,460.7 	"/>
	<g>
		<path d="M2763.6,589.8c-4.4,4.4-9.5,6.6-15.3,6.6c-29.9,0-56.7,3.5-80.4,10.4c-23.7,6.9-47.2,16.6-70.5,29v440
			c0,5.8-2.2,11.1-6.6,15.9c-4.4,4.7-9.5,7.1-15.3,7.1h-100.5c-5.8,0-10.9-2.4-15.3-7.1c-4.4-4.7-6.6-10-6.6-15.8V504.1
			c0-5.8,2.2-10.9,6.6-15.3c4.4-4.4,9.5-6.6,15.3-6.6h95.3c5.8,0,11,2.2,15.3,6.5c4.4,4.3,6.6,9.3,6.6,15.1l-0.3,22.6
			c27-21.1,54.3-35.2,82-42.1s52.5-10.4,74.4-10.4c5.8,0,10.9,2.2,15.3,6.6s6.6,9.5,6.6,15.3v78.7
			C2770.2,580.3,2768,585.5,2763.6,589.8z"/>
		<path d="M3345.9,813c0,18.2-7.3,27.3-21.8,27.3h-356v3.3c0,16.1,1.8,32.3,5.5,48.7c3.6,16.4,10.4,31.3,20.2,44.8
			c9.8,13.5,23.3,24.4,40.5,32.8c17.1,8.4,38.8,12.6,65.1,12.6c40.1,0,77.8-1.3,113.2-3.8c35.4-2.6,64.7-4.9,88.1-7.1h3.3
			c5.8,0,10.6,1.3,14.2,3.8c3.6,2.6,5.5,6.7,5.5,12.6v72.1c0,8.8-1.3,15.3-3.8,19.7c-2.6,4.4-8.9,7.3-19.1,8.7
			c-17.5,3.6-33.9,6.6-49.2,8.7c-15.3,2.2-30.8,4-46.5,5.5c-15.7,1.4-32.8,2.5-51.4,3.3c-18.6,0.7-40.3,1.1-65.1,1.1
			c-27.7,0-57.1-4.2-88.1-12.6c-31-8.4-59.6-23-85.8-43.7c-26.2-20.8-47.9-48.8-65-84.2c-17.1-35.4-25.7-80-25.7-134v-80.9
			c0-42.3,5.8-80.5,17.5-114.8c11.6-34.3,28.6-63.4,50.8-87.5c22.2-24.1,49.7-42.7,82.5-55.8c32.8-13.1,69.9-19.7,111.4-19.7
			c42.2,0,79.5,6.7,111.9,20.2c32.4,13.5,59.5,32.6,81.4,57.4c21.8,24.8,38.4,54.1,49.7,88c11.3,33.9,16.9,71.3,16.9,112.1V813z
			 M3200.6,733.4c0-43.1-10.6-76.4-31.7-99.8s-48.8-35.1-83-35.1c-34.2,0-62.2,11.5-84.1,34.6s-32.7,56.5-32.7,100.4v4.4h231.5
			V733.4z"/>
		<path d="M3958.4,1081.4c-4.4,3.3-10.2,6-17.5,8.2c-4.4,1.5-11.9,3.1-22.4,4.9c-10.6,1.8-23.5,3.6-38.8,5.4
			c-15.3,1.8-32.5,3.4-51.4,4.9c-19,1.4-39,2.2-60.2,2.2c-32.8,0-67.5-4.8-103.9-14.2c-36.5-9.5-69.8-26.8-99.9-52
			c-30.2-25.2-55.2-59.2-75.2-102.3c-20-43-30-98.5-30-166.3V611.5c0-68.6,10-124.5,30-167.9s45-77.5,75.2-102.3
			c30.1-24.8,63.5-41.8,99.9-50.9c36.5-9.1,71.1-13.7,103.9-13.7c21.1,0,41.2,0.7,60.2,2.2c19,1.5,36.1,3.1,51.4,4.9
			s28.3,3.8,38.8,6c10.6,2.2,18,3.6,22.4,4.4c7.3,2.2,13.1,4.9,17.5,8.2c4.4,3.3,6.6,8.9,6.6,16.9v73c0,6.6-1.7,12-4.9,16.4
			c-3.3,4.4-8.9,6.6-16.9,6.6h-2.2c-9.5-0.7-21-1.6-34.5-2.7c-13.5-1.1-27.9-2-43.2-2.7c-15.3-0.7-31-1.5-47-2.2
			c-16.1-0.7-31.4-1.1-45.9-1.1c-23.4,0-44.7,3.5-64,10.4c-19.3,6.9-35.9,18.3-49.8,34s-24.8,36.7-32.8,63c-8,26.3-12,58.8-12,97.5
			v161.1c0,38,4,70.1,12,96.4c8,26.3,19,47.5,32.8,63.5c13.8,16.1,30.4,27.6,49.8,34.5c19.3,6.9,40.7,10.4,64,10.4
			c14.6,0,29.9-0.4,45.9-1.1c16-0.7,31.7-1.5,47-2.2c15.3-0.7,29.7-1.6,43.2-2.7c13.5-1.1,25-2,34.5-2.7h2.2c8,0,13.7,2.2,16.9,6.6
			c3.3,4.4,4.9,9.8,4.9,16.4v73C3965,1072.5,3962.8,1078.2,3958.4,1081.4z"/>
		<path d="M4589.8,834.8c0,39.4-5.6,75.6-16.9,108.8c-11.3,33.2-27.9,61.8-49.7,85.8c-21.8,24.1-49,43-81.4,56.9
			c-32.4,13.8-70.1,20.8-113,20.8c-43,0-80.6-6.9-113-20.8c-32.4-13.8-59.5-32.8-81.4-56.9c-21.8-24.1-38.4-52.7-49.7-85.8
			c-11.3-33.2-16.9-69.4-16.9-108.8v-88.6c0-39.4,5.6-75.6,16.9-108.8c11.3-33.2,27.8-61.8,49.7-85.8c21.8-24.1,49-43,81.4-56.9
			c32.4-13.8,70.1-20.8,113-20.8c42.9,0,80.6,6.9,113,20.8c32.4,13.8,59.5,32.8,81.4,56.9c21.8,24.1,38.4,52.7,49.7,85.8
			c11.3,33.2,16.9,69.4,16.9,108.8V834.8z M4445.5,746.2c0-45.2-9.8-81.1-29.5-107.8c-19.7-26.6-48.7-39.9-87.3-39.9
			c-38.6,0-67.7,13.3-87.3,39.9C4221.8,665,4212,701,4212,746.2v88.6c0,45.2,9.8,81.2,29.5,107.8c19.6,26.6,48.7,39.9,87.3,39.9
			c38.5,0,67.6-13.3,87.3-39.9c19.6-26.6,29.5-62.6,29.5-107.8V746.2z"/>
		<path d="M5203.2,1049.1c0,8-1.8,14-5.5,18.1c-3.7,4-11.7,7.8-24.1,11.5c-34.3,8.8-70.9,15.7-109.6,20.8
			c-38.7,5.1-75.6,7.7-110.7,7.7c-88.4,0-154.1-24.2-197.2-72.7c-43.1-48.5-64.6-115.7-64.6-201.7v-84.2c0-86,21.6-153.3,64.7-201.7
			c43.1-48.5,108.9-72.7,197.4-72.7c13.2,0,28.9,0.6,47.1,1.8c18.3,1.2,37.7,3.4,58.1,6.5v-194c0-5.8,2.2-10.9,6.6-15.3
			c4.4-4.4,9.5-6.6,15.3-6.6h100.5c5.8,0,10.9,2.2,15.3,6.6c4.4,4.4,6.6,9.5,6.6,15.3V1049.1z M5059,599.9
			c-15.4-2.2-33.5-4-54.4-5.4s-37.9-2.2-51.1-2.2c-23.5,0-42.9,4-58.3,12s-27.5,18.9-36.3,32.8c-8.8,13.8-14.8,30.2-18.1,49.1
			c-3.3,18.9-4.9,39.7-4.9,62.3v84.1c0,22.6,1.6,43.3,4.9,62.3c3.3,18.9,9.3,35.3,18.1,49.2c8.8,13.8,20.9,24.7,36.3,32.8
			s34.8,12,58.3,12c19.8,0,39.7-0.7,59.9-2.2c20.1-1.5,35.4-3.3,45.6-5.5V599.9z"/>
		<path d="M5849,813c0,18.2-7.3,27.3-21.8,27.3h-356v3.3c0,16.1,1.8,32.3,5.5,48.7c3.6,16.4,10.4,31.3,20.2,44.8
			c9.8,13.5,23.3,24.4,40.5,32.8c17.1,8.4,38.8,12.6,65.1,12.6c40.1,0,77.8-1.3,113.2-3.8c35.4-2.6,64.7-4.9,88.1-7.1h3.3
			c5.8,0,10.6,1.3,14.2,3.8c3.6,2.6,5.5,6.7,5.5,12.6v72.1c0,8.8-1.3,15.3-3.8,19.7c-2.6,4.4-8.9,7.3-19.1,8.7
			c-17.5,3.6-33.9,6.6-49.2,8.7c-15.3,2.2-30.8,4-46.5,5.5c-15.7,1.4-32.8,2.5-51.4,3.3c-18.6,0.7-40.3,1.1-65.1,1.1
			c-27.7,0-57.1-4.2-88.1-12.6c-31-8.4-59.6-23-85.8-43.7c-26.2-20.8-47.9-48.8-65-84.2s-25.7-80-25.7-134v-80.9
			c0-42.3,5.8-80.5,17.5-114.8c11.6-34.3,28.6-63.4,50.8-87.5c22.2-24.1,49.7-42.7,82.5-55.8c32.8-13.1,69.9-19.7,111.4-19.7
			c42.2,0,79.5,6.7,111.9,20.2c32.4,13.5,59.5,32.6,81.4,57.4c21.8,24.8,38.4,54.1,49.7,88c11.3,33.9,16.9,71.3,16.9,112.1V813z
			 M5703.7,733.4c0-43.1-10.6-76.4-31.7-99.8c-21.1-23.4-48.8-35.1-83-35.1c-34.2,0-62.2,11.5-84.1,34.6
			c-21.8,23-32.7,56.5-32.7,100.4v4.4h231.5V733.4z"/>
	</g>
	<g>
		<path d="M2671.8,1698.8l-139.5-186.3h-49.9v186.3h-49.1v-405.8h49.1v176h21.4l162.5-176h58.7l-164.1,178.3l169.6,227.5H2671.8z"/>
		<path d="M2888.9,1705.1c-27.5,0-51.6-6.5-72.2-19.6c-20.7-13.1-36.8-31.4-48.3-54.9c-11.6-23.5-17.3-51-17.3-82.4
			c0-31.7,5.8-59.4,17.3-83c11.6-23.6,27.7-42,48.3-55.1c20.7-13.1,44.7-19.6,72.2-19.6c27.5,0,51.6,6.5,72.2,19.6
			c20.7,13.1,36.8,31.4,48.3,55.1c11.6,23.6,17.3,51.3,17.3,83c0,31.4-5.8,58.9-17.3,82.4c-11.6,23.5-27.7,41.8-48.3,54.9
			C2940.5,1698.6,2916.4,1705.1,2888.9,1705.1z M2888.9,1663.1c20.9,0,38-5.3,51.5-16c13.5-10.7,23.4-24.8,29.9-42.2
			c6.5-17.4,9.7-36.3,9.7-56.7c0-20.3-3.2-39.3-9.7-56.9c-6.5-17.6-16.4-31.8-29.9-42.6c-13.5-10.8-30.6-16.2-51.5-16.2
			c-20.9,0-38,5.4-51.5,16.2c-13.5,10.8-23.5,25-29.9,42.6c-6.5,17.6-9.7,36.5-9.7,56.9c0,20.3,3.2,39.2,9.7,56.7
			c6.5,17.4,16.4,31.5,29.9,42.2C2850.9,1657.7,2868.1,1663.1,2888.9,1663.1z"/>
		<path d="M3145,1394.4v304.4h-46.8v-304.4H3145z M3301.9,1525.2v43.6h-168v-43.6H3301.9z M3337.6,1394.4v304.4h-46.8v-304.4H3337.6
			z"/>
		<path d="M3546.8,1705.1c-28.5,0-53.1-6.7-73.7-20.2c-20.6-13.5-36.5-32-47.6-55.7c-11.1-23.6-16.6-50.7-16.6-81
			c0-30.9,5.7-58.2,17.1-81.9c11.4-23.7,27.4-42.3,48-55.7c20.5-13.4,44.6-20.1,72-20.1c21.4,0,40.7,4,57.9,11.9
			c17.2,7.9,31.2,19,42.2,33.3c11,14.3,17.8,30.9,20.4,49.9h-46.8c-3.6-13.9-11.5-26.2-23.7-37c-12.2-10.8-28.6-16.1-49.2-16.1
			c-18.2,0-34.2,4.7-47.9,14.2c-13.7,9.4-24.3,22.7-31.9,39.8c-7.6,17.1-11.4,37.2-11.4,60.1c0,23.5,3.7,44,11.2,61.4
			c7.5,17.4,18,31,31.7,40.6c13.7,9.6,29.8,14.5,48.2,14.5c12.2,0,23.2-2.1,33.1-6.3c9.9-4.2,18.3-10.3,25.2-18.2
			c6.9-7.9,11.8-17.4,14.7-28.5h46.8c-2.6,18-9.1,34.1-19.5,48.4c-10.4,14.3-24,25.7-41,34.1
			C3589,1700.9,3569.3,1705.1,3546.8,1705.1z"/>
		<path d="M3710.9,1438v-43.6h247.3v43.6h-99.9v260.8h-46.8V1438H3710.9z"/>
		<path d="M4026.3,1812.9v-418.5h45.2v48.3h5.5c3.4-5.3,8.2-12.1,14.4-20.3c6.1-8.3,15-15.7,26.6-22.2c11.6-6.5,27.2-9.8,47.1-9.8
			c25.6,0,48.2,6.4,67.8,19.2c19.5,12.8,34.8,31,45.8,54.5c11,23.5,16.4,51.3,16.4,83.2c0,32.2-5.5,60.1-16.4,83.7
			c-11,23.6-26.2,41.8-45.6,54.7c-19.4,12.9-41.8,19.3-67.2,19.3c-19.6,0-35.2-3.3-47-9.8c-11.8-6.5-20.8-14-27.1-22.4
			c-6.3-8.4-11.2-15.4-14.7-20.9h-4v160.9H4026.3z M4072.3,1546.6c0,23,3.4,43.2,10.1,60.7c6.7,17.5,16.6,31.2,29.5,41
			c12.9,9.8,28.8,14.8,47.6,14.8c19.5,0,35.9-5.2,49-15.6c13.1-10.4,23.1-24.4,29.7-42c6.7-17.6,10-37.3,10-59
			c0-21.4-3.3-40.7-9.8-58s-16.4-30.9-29.5-41c-13.1-10.1-29.6-15.2-49.4-15.2c-19,0-35,4.8-48,14.4c-12.9,9.6-22.7,22.9-29.3,40
			C4075.6,1504,4072.3,1523.9,4072.3,1546.6z"/>
		<path d="M4385.4,1812.9c-7.9,0-15-0.6-21.2-1.9c-6.2-1.3-10.5-2.5-12.9-3.7l11.9-41.2c11.4,2.9,21.4,4,30.1,3.2
			s16.5-4.7,23.3-11.6c6.8-6.9,13-18.1,18.7-33.6l8.7-23.8l-112.6-306h50.7l84,242.5h3.2l84-242.5h50.7L4475,1743.2
			c-5.8,15.7-13,28.8-21.6,39.1c-8.6,10.4-18.5,18.1-29.8,23.1C4412.2,1810.4,4399.5,1812.9,4385.4,1812.9z"/>
		<path d="M4666,1698.8v-304.4h46.8v132.4h30.9l109.4-132.4h60.2L4790.4,1541l124.4,157.7h-60.2l-99.9-128.4h-42v128.4H4666z"/>
		<path d="M4948.1,1438v-43.6h247.3v43.6h-99.9v260.8h-46.8V1438H4948.1z"/>
		<path d="M5371.4,1705.1c-27.5,0-51.6-6.5-72.2-19.6c-20.7-13.1-36.8-31.4-48.3-54.9c-11.6-23.5-17.3-51-17.3-82.4
			c0-31.7,5.8-59.4,17.3-83c11.6-23.6,27.7-42,48.3-55.1c20.7-13.1,44.7-19.6,72.2-19.6c27.5,0,51.6,6.5,72.2,19.6
			c20.7,13.1,36.8,31.4,48.3,55.1c11.6,23.6,17.3,51.3,17.3,83c0,31.4-5.8,58.9-17.3,82.4c-11.6,23.5-27.7,41.8-48.3,54.9
			C5423,1698.6,5398.9,1705.1,5371.4,1705.1z M5371.4,1663.1c20.9,0,38-5.3,51.5-16c13.5-10.7,23.4-24.8,29.9-42.2
			c6.5-17.4,9.7-36.3,9.7-56.7c0-20.3-3.2-39.3-9.7-56.9c-6.5-17.6-16.4-31.8-29.9-42.6c-13.5-10.8-30.6-16.2-51.5-16.2
			c-20.9,0-38,5.4-51.5,16.2c-13.5,10.8-23.5,25-29.9,42.6c-6.5,17.6-9.7,36.5-9.7,56.9c0,20.3,3.2,39.2,9.7,56.7
			c6.5,17.4,16.4,31.5,29.9,42.2C5333.4,1657.7,5350.5,1663.1,5371.4,1663.1z"/>
		<path d="M5580.7,1812.9v-418.5h45.2v48.3h5.5c3.4-5.3,8.2-12.1,14.4-20.3c6.1-8.3,15-15.7,26.6-22.2c11.6-6.5,27.2-9.8,47.1-9.8
			c25.6,0,48.2,6.4,67.8,19.2c19.5,12.8,34.8,31,45.8,54.5c11,23.5,16.4,51.3,16.4,83.2c0,32.2-5.5,60.1-16.4,83.7
			c-11,23.6-26.2,41.8-45.6,54.7c-19.4,12.9-41.8,19.3-67.2,19.3c-19.6,0-35.2-3.3-47-9.8c-11.8-6.5-20.8-14-27.1-22.4
			c-6.3-8.4-11.2-15.4-14.7-20.9h-4v160.9H5580.7z M5626.6,1546.6c0,23,3.4,43.2,10.1,60.7c6.7,17.5,16.6,31.2,29.5,41
			c12.9,9.8,28.8,14.8,47.6,14.8c19.5,0,35.9-5.2,49-15.6c13.1-10.4,23.1-24.4,29.7-42c6.7-17.6,10-37.3,10-59
			c0-21.4-3.3-40.7-9.8-58s-16.4-30.9-29.5-41c-13.1-10.1-29.6-15.2-49.4-15.2c-19,0-35,4.8-48,14.4c-12.9,9.6-22.7,22.9-29.3,40
			C5629.9,1504,5626.6,1523.9,5626.6,1546.6z"/>
		<path d="M6124.4,1394.4v304.4h-46.8v-304.4H6124.4z M6244.1,1635.4l106.2-241h44.4l-131.6,304.4h-38l-129.2-304.4h43.6
			L6244.1,1635.4z M6363.8,1698.8v-304.4h46.8v304.4H6363.8z"/>
		<path d="M6585.7,1705.9c-19.3,0-36.8-3.7-52.5-11c-15.7-7.3-28.2-18-37.5-31.9c-9.2-13.9-13.9-30.8-13.9-50.6
			c0-17.4,3.4-31.6,10.3-42.5c6.9-10.9,16.1-19.5,27.5-25.7c11.5-6.2,24.2-10.9,38.1-14c13.9-3.1,28-5.6,42.1-7.4
			c18.5-2.4,33.5-4.2,45.1-5.4c11.6-1.3,20-3.4,25.4-6.4c5.3-3,8-8.3,8-15.9v-1.6c0-19.5-5.3-34.7-16-45.6
			c-10.6-10.8-26.7-16.2-48.2-16.2c-22.3,0-39.8,4.9-52.5,14.7c-12.7,9.8-21.6,20.2-26.8,31.3l-44.4-15.9
			c7.9-18.5,18.5-32.9,31.8-43.3c13.3-10.4,27.8-17.6,43.6-21.8c15.8-4.2,31.3-6.2,46.7-6.2c9.8,0,21,1.2,33.8,3.5
			c12.7,2.3,25.1,7,37.1,14.2c12,7.1,21.9,17.9,29.8,32.3c7.9,14.4,11.9,33.7,11.9,57.9v200.5h-46.8v-41.2h-2.4
			c-3.2,6.6-8.5,13.7-15.9,21.2c-7.4,7.5-17.2,13.9-29.5,19.2C6618.4,1703.3,6603.4,1705.9,6585.7,1705.9z M6592.8,1663.9
			c18.5,0,34.1-3.6,46.9-10.9c12.7-7.3,22.4-16.6,28.9-28.1c6.5-11.5,9.8-23.6,9.8-36.3v-42.8c-2,2.4-6.3,4.5-13,6.4
			c-6.7,1.9-14.3,3.6-23,5c-8.7,1.4-17,2.6-25.2,3.6c-8.1,1-14.7,1.8-19.7,2.5c-12.2,1.6-23.5,4.1-34,7.6
			c-10.5,3.5-19,8.7-25.4,15.7c-6.4,6.9-9.6,16.3-9.6,28.2c0,16.2,6,28.5,18.1,36.8C6558.8,1659.8,6574.2,1663.9,6592.8,1663.9z"/>
		<path d="M6810.8,1698.8v-304.4h46.8v132.4h30.9l109.4-132.4h60.2L6935.2,1541l124.4,157.7h-60.2l-99.9-128.4h-42v128.4H6810.8z"/>
		<path d="M7110.4,1812.9v-418.5h45.2v48.3h5.5c3.4-5.3,8.2-12.1,14.4-20.3c6.1-8.3,15-15.7,26.6-22.2c11.6-6.5,27.2-9.8,47.1-9.8
			c25.6,0,48.2,6.4,67.8,19.2c19.5,12.8,34.8,31,45.8,54.5c11,23.5,16.4,51.3,16.4,83.2c0,32.2-5.5,60.1-16.4,83.7
			c-11,23.6-26.2,41.8-45.6,54.7c-19.4,12.9-41.8,19.3-67.2,19.3c-19.6,0-35.2-3.3-47-9.8c-11.8-6.5-20.8-14-27.1-22.4
			c-6.3-8.4-11.2-15.4-14.7-20.9h-4v160.9H7110.4z M7156.4,1546.6c0,23,3.4,43.2,10.1,60.7c6.7,17.5,16.6,31.2,29.5,41
			c12.9,9.8,28.8,14.8,47.6,14.8c19.5,0,35.9-5.2,49-15.6c13.1-10.4,23.1-24.4,29.7-42c6.7-17.6,10-37.3,10-59
			c0-21.4-3.3-40.7-9.8-58s-16.4-30.9-29.5-41c-13.1-10.1-29.6-15.2-49.4-15.2c-19,0-35,4.8-48,14.4c-12.9,9.6-22.7,22.9-29.3,40
			C7159.7,1504,7156.4,1523.9,7156.4,1546.6z"/>
		<path d="M7574.1,1705.1c-27.5,0-51.6-6.5-72.2-19.6c-20.7-13.1-36.8-31.4-48.3-54.9c-11.6-23.5-17.3-51-17.3-82.4
			c0-31.7,5.8-59.4,17.3-83c11.6-23.6,27.7-42,48.3-55.1c20.7-13.1,44.7-19.6,72.2-19.6c27.5,0,51.6,6.5,72.2,19.6
			c20.7,13.1,36.8,31.4,48.3,55.1c11.6,23.6,17.3,51.3,17.3,83c0,31.4-5.8,58.9-17.3,82.4c-11.6,23.5-27.7,41.8-48.3,54.9
			C7625.6,1698.6,7601.6,1705.1,7574.1,1705.1z M7574.1,1663.1c20.9,0,38-5.3,51.5-16c13.5-10.7,23.4-24.8,29.9-42.2
			c6.5-17.4,9.7-36.3,9.7-56.7c0-20.3-3.2-39.3-9.7-56.9c-6.5-17.6-16.4-31.8-29.9-42.6c-13.5-10.8-30.6-16.2-51.5-16.2
			c-20.9,0-38,5.4-51.5,16.2c-13.5,10.8-23.5,25-29.9,42.6c-6.5,17.6-9.7,36.5-9.7,56.9c0,20.3,3.2,39.2,9.7,56.7
			c6.5,17.4,16.4,31.5,29.9,42.2C7536,1657.7,7553.2,1663.1,7574.1,1663.1z"/>
		<path d="M7907,1705.1c-28.5,0-53.1-6.7-73.7-20.2c-20.6-13.5-36.5-32-47.6-55.7c-11.1-23.6-16.6-50.7-16.6-81
			c0-30.9,5.7-58.2,17.1-81.9c11.4-23.7,27.4-42.3,48-55.7c20.5-13.4,44.6-20.1,72-20.1c21.4,0,40.7,4,57.9,11.9
			c17.2,7.9,31.2,19,42.2,33.3c11,14.3,17.8,30.9,20.4,49.9h-46.8c-3.6-13.9-11.5-26.2-23.7-37c-12.2-10.8-28.6-16.1-49.2-16.1
			c-18.2,0-34.2,4.7-47.9,14.2c-13.7,9.4-24.3,22.7-31.9,39.8c-7.6,17.1-11.4,37.2-11.4,60.1c0,23.5,3.7,44,11.2,61.4
			c7.5,17.4,18,31,31.7,40.6c13.7,9.6,29.8,14.5,48.2,14.5c12.2,0,23.2-2.1,33.1-6.3c9.9-4.2,18.3-10.3,25.2-18.2
			c6.9-7.9,11.8-17.4,14.7-28.5h46.8c-2.6,18-9.1,34.1-19.5,48.4c-10.4,14.3-24,25.7-41,34.1
			C7949.2,1700.9,7929.4,1705.1,7907,1705.1z"/>
		<path d="M8218.5,1705.1c-27.5,0-51.6-6.5-72.2-19.6c-20.7-13.1-36.8-31.4-48.3-54.9c-11.6-23.5-17.3-51-17.3-82.4
			c0-31.7,5.8-59.4,17.3-83c11.6-23.6,27.7-42,48.3-55.1c20.7-13.1,44.7-19.6,72.2-19.6c27.5,0,51.6,6.5,72.2,19.6
			c20.7,13.1,36.8,31.4,48.3,55.1c11.6,23.6,17.3,51.3,17.3,83c0,31.4-5.8,58.9-17.3,82.4c-11.6,23.5-27.7,41.8-48.3,54.9
			C8270,1698.6,8246,1705.1,8218.5,1705.1z M8218.5,1663.1c20.9,0,38-5.3,51.5-16c13.5-10.7,23.4-24.8,29.9-42.2
			c6.5-17.4,9.7-36.3,9.7-56.7c0-20.3-3.2-39.3-9.7-56.9c-6.5-17.6-16.4-31.8-29.9-42.6c-13.5-10.8-30.6-16.2-51.5-16.2
			c-20.9,0-38,5.4-51.5,16.2c-13.5,10.8-23.5,25-29.9,42.6c-6.5,17.6-9.7,36.5-9.7,56.9c0,20.3,3.2,39.2,9.7,56.7
			c6.5,17.4,16.4,31.5,29.9,42.2C8180.4,1657.7,8197.6,1663.1,8218.5,1663.1z"/>
		<path d="M8427.7,1698.8v-304.4h124.4c32.8,0,58.8,7.4,78.1,22.2c19.3,14.8,28.9,34.3,28.9,58.7c0,18.5-5.5,32.8-16.4,42.9
			c-11,10.1-25,16.9-42.2,20.5c11.2,1.6,22.2,5.5,32.8,11.9c10.6,6.3,19.4,15,26.5,26.1c7,11,10.5,24.5,10.5,40.5
			c0,15.6-4,29.5-11.9,41.8c-7.9,12.3-19.3,22-34.1,29.1c-14.8,7.1-32.5,10.7-53.1,10.7H8427.7z M8472.1,1522h80.1
			c12.5,0,23.3-1.7,32.3-5.3c9-3.5,15.9-8.5,20.7-15.1c4.8-6.5,7.2-14.3,7.2-23.3c0-12.8-5.4-22.9-16.1-30.2
			c-10.7-7.3-25.4-11-44.2-11h-80.1V1522z M8472.1,1656h99.1c16.1,0,28.7-3.8,37.8-11.5c9.1-7.7,13.7-18.1,13.7-31.3
			c0-15.7-4.6-28.1-13.7-37.2c-9.1-9-21.7-13.6-37.8-13.6h-99.1V1656z"/>
	</g>
</g>
</svg>
