<svg xmlns="http://www.w3.org/2000/svg" viewBox="0 0 2048 2048"  xml:space="preserve"><path d="M0 983.1C0 519.7 0 288 144 144S519.7 0 983.1 0h81.9c463.4 0 695.1 0 839.1 144s144 375.7 144 839.1v81.9c0 463.4 0 695.1-144 839.1s-375.7 144-839.1 144h-82c-463.4 0-695.1 0-839.1-144C0 1760.2 0 1528.5 0 1065v-81.9z" style="fill:#005de0"/><path d="M816.8 1379 612 1024l204.8-355h298.4l170.2-295H646.7l-375 650 375 650h638.7l-170.2-295H816.8z" style="fill:#fff"/><path style="opacity:.5;fill:#fff" d="m1771.7 1024.4-324.8 562.9-170.2-295 154.6-267.9-155-268.7 170.1-295z"/></svg>