<?xml version="1.0" encoding="utf-8"?>
<!-- Generator: Adobe Illustrator 27.2.0, SVG Export Plug-In . SVG Version: 6.00 Build 0)  -->
<svg version="1.1" xmlns="http://www.w3.org/2000/svg" xmlns:xlink="http://www.w3.org/1999/xlink" x="0px" y="0px"
	 viewBox="0 0 2048 2048" style="enable-background:new 0 0 2048 2048;" xml:space="preserve">
<style type="text/css">
	.st0{fill:#005DE0;}
	.st1{fill:#FFFFFF;}
	.st2{opacity:0.5;fill:#FFFFFF;}
</style>
<g id="Слой_1">
	<path class="st0" d="M0,983.1C0,519.7,0,288,144,144c144-144,375.7-144,839.1-144h81.9c463.4,0,695.1,0,839.1,144
		c144,144,144,375.7,144,839.1v81.9c0,463.4,0,695.1-144,839.1c-144,144-375.7,144-839.1,144H983c-463.4,0-695.1,0-839.1-144
		C0,1760.2,0,1528.5,0,1065V983.1z"/>
</g>
<g id="Слой_2">
	<path class="st1" d="M816.8,1379L612,1024l204.8-355h298.4l170.2-295H646.7l-375,650l375,650h638.7l-170.2-295H816.8z"/>
	<polygon class="st2" points="1771.7,1024.4 1446.9,1587.3 1276.7,1292.3 1431.3,1024.4 1276.3,755.7 1446.4,460.7 	"/>
</g>
</svg>
